<svg id="Layer_1" data-name="Layer 1" xmlns="http://www.w3.org/2000/svg" viewBox="0 0 51.69 49.8"><defs><style>.cls-1{fill:#fff;stroke:#21c0da;stroke-miterlimit:10;stroke-width:2px;}</style></defs><title>Icones com o Circulo</title><path class="cls-1" d="M33.53,14.5H15.23l6.38-6.38a4.17,4.17,0,0,0-5.89-5.9L2.22,15.72,2,16l-.07.09-.16.21-.07.11c-.06.1-.12.2-.17.3a.47.47,0,0,0-.05.1,2.4,2.4,0,0,0-.11.23l-.06.14c0,.07-.05.14-.07.21l0,.13a3.38,3.38,0,0,0-.08.34.15.15,0,0,0,0,.07,2.5,2.5,0,0,0-.05.29.41.41,0,0,1,0,.11c0,.09,0,.18,0,.27v.1c0,.12,0,.24,0,.36H1c0,.12,0,.23.05.35a.5.5,0,0,1,0,.12l.06.23c0,.05,0,.09,0,.14a2,2,0,0,0,.08.22s0,.08,0,.13h0a2.75,2.75,0,0,0,.14.3.54.54,0,0,0,.07.13,1.32,1.32,0,0,0,.12.2l.07.12.18.24,0,.06.26.28,0,0L15.65,35a4.16,4.16,0,0,0,5.89-5.89l-6.31-6.32h18.3a8.82,8.82,0,1,1,0,17.63H24.46a4.17,4.17,0,0,0,0,8.34h9.07a17.15,17.15,0,1,0,0-34.3Z"/></svg>