<svg id="Layer_1" data-name="Layer 1" xmlns="http://www.w3.org/2000/svg" viewBox="0 0 62.88 77.67"><defs><style>.cls-1{fill:#fff;}</style></defs><title>Icones com o Circulo</title><path class="cls-1" d="M57.51,23.11,39.76,5.36A5.47,5.47,0,0,0,35.87,3.7H9.24A5.55,5.55,0,0,0,3.7,9.24V68.42A5.56,5.56,0,0,0,9.24,74H53.63a5.54,5.54,0,0,0,5.55-5.55V27A5.63,5.63,0,0,0,57.51,23.11ZM41.79,53.43H34.94v6.85a3.5,3.5,0,1,1-7,0V53.43H21.09a3.5,3.5,0,1,1,0-7h6.85V39.58a3.5,3.5,0,1,1,7,0v6.85h6.85a3.5,3.5,0,0,1,0,7Zm12-25.82a1.52,1.52,0,0,1-1.42.93H38.85A4.37,4.37,0,0,1,34.34,24V10.48a1.57,1.57,0,0,1,.93-1.4,1.51,1.51,0,0,1,1.66.34L53.49,26A1.57,1.57,0,0,1,53.82,27.61Z"/></svg>