<svg id="Layer_1" data-name="Layer 1" xmlns="http://www.w3.org/2000/svg" viewBox="0 0 47.7 44.84"><defs><style>.cls-1{fill:#121212;}</style></defs><title>Icones com o Circulo</title><path class="cls-1" d="M0,17.12v10.6a2.65,2.65,0,0,0,2.65,2.65h8l8.72,8.72a2.66,2.66,0,0,0,4.53-1.88V7.61a2.66,2.66,0,0,0-4.53-1.88L10.6,14.47H2.65A2.65,2.65,0,0,0,0,17.12Zm35.78,5.3a11.93,11.93,0,0,0-6.63-10.68V33.08A11.88,11.88,0,0,0,35.78,22.42Zm-6.63-20v.53A2.47,2.47,0,0,0,30.74,5.2a18.55,18.55,0,0,1,0,34.45,2.42,2.42,0,0,0-1.59,2.25v.53a2.39,2.39,0,0,0,3.21,2.25,23.82,23.82,0,0,0,0-44.52A2.38,2.38,0,0,0,29.15,2.41Z"/></svg>