<svg id="Layer_1" data-name="Layer 1" xmlns="http://www.w3.org/2000/svg" viewBox="0 0 24 24"><defs><style>.cls-1{fill:#fff;}.cls-2{fill:#121212;}</style></defs><title>Icones com o Circulo</title><circle class="cls-1" cx="12" cy="12" r="11.5"/><path class="cls-2" d="M12,1A11,11,0,1,1,1,12,11,11,0,0,1,12,1m0-1A12,12,0,1,0,24,12,12,12,0,0,0,12,0Z"/><path class="cls-2" d="M12,19.5A1.5,1.5,0,0,1,10.5,18V6a1.5,1.5,0,0,1,3,0V18A1.5,1.5,0,0,1,12,19.5Z"/><path class="cls-2" d="M18,13.5H6a1.5,1.5,0,0,1,0-3H18a1.5,1.5,0,0,1,0,3Z"/></svg>