<svg id="Layer_1" data-name="Layer 1" xmlns="http://www.w3.org/2000/svg" viewBox="0 0 42.4 47.7"><defs><style>.cls-1{fill:#121212;}</style></defs><title>Icones com o Circulo</title><path class="cls-1" d="M37.1,2.65V5.3H31.8V2.65A2.65,2.65,0,0,0,29.15,0H13.25A2.65,2.65,0,0,0,10.6,2.65V5.3H5.3V2.65a2.65,2.65,0,0,0-5.3,0v42.4a2.65,2.65,0,0,0,5.3,0V42.4h5.3v2.65a2.65,2.65,0,0,0,2.65,2.65h15.9a2.65,2.65,0,0,0,2.65-2.65V42.4h5.3v2.65a2.65,2.65,0,0,0,5.3,0V2.65a2.65,2.65,0,0,0-5.3,0ZM10.6,37.1H5.3V31.8h5.3Zm0-10.6H5.3V21.2h5.3Zm0-10.6H5.3V10.6h5.3ZM37.1,37.1H31.8V31.8h5.3Zm0-10.6H31.8V21.2h5.3Zm0-10.6H31.8V10.6h5.3Z"/></svg>