<svg id="Layer_1" data-name="Layer 1" xmlns="http://www.w3.org/2000/svg" viewBox="0 0 51.69 49.79"><defs><style>.cls-1{fill:#fff;}</style></defs><title>Icones com o Circulo</title><path class="cls-1" d="M2.74,1.81a2.74,2.74,0,0,0,0,3.89l10.1,10.1-.8.83H3.76A2.77,2.77,0,0,0,1,19.39v11a2.77,2.77,0,0,0,2.76,2.76H12l9.08,9.08a2.77,2.77,0,0,0,4.72-2V28.8L37.38,40.34A18.51,18.51,0,0,1,33,42.85a2.76,2.76,0,0,0,2.24,5,24.85,24.85,0,0,0,6.13-3.61L45,48a2.75,2.75,0,0,0,3.89-3.89L6.66,1.81A2.78,2.78,0,0,0,2.74,1.81Zm42.42,23.1A19.19,19.19,0,0,1,44,31.37l4.23,4.22A24.79,24.79,0,0,0,34.73,1.72,2.51,2.51,0,0,0,31.36,4.1v.52A2.56,2.56,0,0,0,33.05,7,19.38,19.38,0,0,1,45.16,24.91Zm-24-17.36L20.65,8l5.19,5.19V9.48A2.76,2.76,0,0,0,21.12,7.55ZM38.26,24.91a12.41,12.41,0,0,0-6.9-11.12v4.94l6.85,6.84A4.89,4.89,0,0,0,38.26,24.91Z"/></svg>