<svg xmlns="http://www.w3.org/2000/svg" viewBox="0 0 84.25 107.93"><defs><style>.cls-1{fill:#fff;stroke:#231f20;stroke-miterlimit:10;stroke-width:4px;}</style></defs><title>sticker_Artboard 45</title><g id="Top_layer"><path class="cls-1" d="M68.85,54.64c0,21.25-12.67,38.47-25.53,38.47S17.8,75.89,17.8,54.64s5.51-34.47,25.52-34.47S68.85,33.39,68.85,54.64Z"/><path class="cls-1" d="M43.31,20.65c1.7,3.17-4.45,4.62-13.74,8.17s-14,9.16-15.67,6,.22-14,9.51-17.5S41.6,17.47,43.31,20.65Z"/><path class="cls-1" d="M43.87,20.65c-1.7,3.17,4.45,4.62,13.74,8.17s14,9.16,15.67,6-.22-14-9.51-17.5S45.58,17.47,43.87,20.65Z"/></g></svg>