<svg xmlns="http://www.w3.org/2000/svg" viewBox="0 0 126 86"><defs><style>.cls-1{fill:#ebcc40;stroke:#231f20;stroke-width:4px;}.cls-1,.cls-2,.cls-3,.cls-4,.cls-5{stroke-linecap:round;stroke-linejoin:round;}.cls-2{fill:#d75c66;}.cls-2,.cls-3,.cls-4,.cls-5{stroke:#fff;stroke-width:0.5px;}.cls-3{fill:#bc2226;}.cls-4{fill:#f69892;}.cls-5{fill:#cd3727;}</style></defs><title>sticker_Artboard 55</title><g id="Top_layer"><path class="cls-1" d="M22.09,80s48-24.74,84.67-2.55l2.74-28.77S95,55.33,82,17.15c0,0-31.55,47.76-66.36,32.75Z"/><path class="cls-2" d="M81.38,61.64C79,61.57,77,59.35,76,56.11l3.09-2.85,2.43,2.5Z"/><path class="cls-3" d="M76,56.11a17.39,17.39,0,0,1,.3-10.74l2.93,3-.14,4.88Z"/><path class="cls-4" d="M79.26,48.38l-2.93-3c1.19-3.19,3.31-5.29,5.66-5.22L81.82,46Z"/><path class="cls-2" d="M84.25,48.52,81.82,46,82,40.15c2.36.06,4.35,2.28,5.35,5.53Z"/><path class="cls-3" d="M87,56.42l-2.93-3,.14-4.88,3.09-2.84a16.45,16.45,0,0,1,.7,5.39A16.8,16.8,0,0,1,87,56.42Z"/><path class="cls-5" d="M81.38,61.64l.17-5.88,2.56-2.36,2.93,3C85.85,59.6,83.73,61.7,81.38,61.64Z"/><polygon class="cls-5" points="81.55 55.77 79.12 53.26 79.26 48.38 81.82 46.02 84.25 48.52 84.11 53.4 81.55 55.77"/></g></svg>