<svg xmlns="http://www.w3.org/2000/svg" viewBox="0 0 159.02 125.79"><defs><style>.cls-1{fill:#58bbd9;}.cls-1,.cls-2,.cls-3{stroke:#231f20;stroke-linecap:round;stroke-width:4px;}.cls-1,.cls-3{stroke-linejoin:round;}.cls-2,.cls-3{fill:#77439a;}.cls-2{stroke-miterlimit:10;}</style></defs><title>sticker_Artboard 50</title><g id="Top_layer"><path class="cls-1" d="M97.77-7C73.83-14.91,70.4-1.79,60.23-1.79c-9.95,0-28.78-16.88-28.78-16.88,9.17-.69,21.93-5.21,31.94-5.21a68.9,68.9,0,0,1,9,.6C81.68-22,83.74-16.53,94.62-9.81,99.3-6.91,97.57-7.17,97.77-7Z"/><ellipse class="cls-2" cx="78.05" cy="81.12" rx="14.06" ry="67.93" transform="translate(-19.94 136.53) rotate(-75.59)"/><path class="cls-3" d="M48.49,71.28l44.38-56,8,6.47,3.71-7.57,21.19,21.91a2.66,2.66,0,0,1-3.07,4.24l-13-6.35-2.43,9-7.64-5.65,5.5,47.76"/></g></svg>