<svg xmlns="http://www.w3.org/2000/svg" viewBox="0 0 109.37 126.67"><defs><style>.cls-1,.cls-2{fill:#fff;}.cls-1{stroke:#231f20;stroke-linecap:round;stroke-linejoin:round;stroke-width:4px;}.cls-3{fill:#231f20;}</style></defs><title>sticker_Artboard 56</title><g id="Top_layer"><path class="cls-1" d="M93.46,40.9l-6.8,67a5.6,5.6,0,0,1-9,3.85l-52.47-41a14.33,14.33,0,0,1-5.49-10.58l-1.33-27a2.12,2.12,0,0,1,4.11-.83C32.43,59.66,46.5,64.36,62,64.36l5.69-7.53,6.2,6S87.68,66.72,93.46,40.9Z"/><polygon class="cls-1" points="73.9 41.89 98.45 66.45 67.31 50.29 27.37 66.67 59.9 40.61 68.08 44.95 73.9 41.89"/><path class="cls-2" d="M47.84,31.42a4.61,4.61,0,0,1-4-2.36c-3.27-5.9-3.65-13.3-3.55-17.49C46,15.21,58.77,22.71,67.34,22.71c8,0,13.58-6.18,16.41-10.28,2.08,5.8,2.38,11.15.86,15.65a4.5,4.5,0,0,1-4.31,3,4.69,4.69,0,0,1-2.42-.67l-10-6a2,2,0,0,0-1-.29,1.9,1.9,0,0,0-.77.16L49.62,31.06a4.57,4.57,0,0,1-1.78.36Z"/><path class="cls-3" d="M42.32,15.2c5.13,3.09,12.61,7.07,19.34,8.73l-12.8,5.28a2.61,2.61,0,0,1-3.3-1.12A30.49,30.49,0,0,1,42.32,15.2m40.62,1.51a19.7,19.7,0,0,1-.23,10.72,2.48,2.48,0,0,1-2.41,1.64,2.71,2.71,0,0,1-1.39-.38l-7.46-4.48c4.92-1.2,8.77-4.41,11.49-7.5M84.08,8S77.93,20.71,67.35,20.71,38.49,8,38.49,8s-1.63,12.64,3.57,22a6.6,6.6,0,0,0,5.78,3.39,6.7,6.7,0,0,0,2.54-.51l16.47-6.8,10,6a6.71,6.71,0,0,0,3.45,1,6.49,6.49,0,0,0,6.2-4.35C88,24.21,88.47,17.35,84.08,8Z"/></g></svg>