<svg xmlns="http://www.w3.org/2000/svg" viewBox="0 0 88.79 220.87"><defs><style>.cls-1,.cls-2{fill:none;}.cls-1,.cls-3,.cls-4{stroke:#231f20;}.cls-1,.cls-2,.cls-3,.cls-4{stroke-linecap:round;stroke-linejoin:round;}.cls-1{stroke-width:13px;}.cls-2{stroke:#ce8b40;}.cls-2,.cls-3,.cls-4{stroke-width:4px;}.cls-3{fill:#e45b45;}.cls-4{fill:#8dc63f;}</style></defs><title>sticker_Artboard 49</title><g id="Top_layer"><path class="cls-1" d="M42.62,211.76V85.49a23.44,23.44,0,0,1,13-20.88c7.52-3.79,15.51-11,15.51-24.47,0-15.87-11.07-22.65-19.41-25.51A26.59,26.59,0,0,0,29.17,16.8C23.24,20.47,17.6,24.1,17.6,37c0,27.07,41.87,16.57,29.61-1.58"/><path class="cls-2" d="M42.62,211.76V85.49a23.44,23.44,0,0,1,13-20.88c7.52-3.79,15.51-11,15.51-24.47,0-15.87-11.07-22.65-19.41-25.51A26.59,26.59,0,0,0,29.17,16.8C23.24,20.47,17.6,24.1,17.6,37c0,27.07,41.87,16.57,29.61-1.58"/><ellipse class="cls-3" cx="55.11" cy="88.87" rx="5.95" ry="16.21" transform="translate(-42.93 52.5) rotate(-37.84)"/><ellipse class="cls-4" cx="59.59" cy="83.47" rx="5.95" ry="16.21" transform="translate(-41.88 98.39) rotate(-62.84)"/></g></svg>