<svg xmlns="http://www.w3.org/2000/svg" viewBox="0 0 46.9 119.61"><defs><style>.cls-1{fill:#fff;}.cls-2{fill:#231f20;}</style></defs><title>sticker_Artboard 47</title><g id="Top_layer"><path class="cls-1" d="M14.94,112.91a2.22,2.22,0,0,1-.51-.06L9.8,111.63a2,2,0,0,1-1.22-.93,2,2,0,0,1-.2-1.53L33,18a2,2,0,0,1,1-1.27,2,2,0,0,1,.89-.21,2.17,2.17,0,0,1,.75.14l1.82.73a2,2,0,0,1,1.21,2.32L16.89,111.38a2,2,0,0,1-.92,1.25A2,2,0,0,1,14.94,112.91Z"/><path class="cls-2" d="M34.93,18.52l1.83.73L14.94,110.91l-4.63-1.22L34.93,18.52m0-4a4.05,4.05,0,0,0-1.79.42,4,4,0,0,0-2.07,2.54L6.45,108.65a4,4,0,0,0,2.84,4.91l4.63,1.22a4,4,0,0,0,4.91-2.94L40.65,20.18a4,4,0,0,0-2.4-4.64l-1.83-.73a4,4,0,0,0-1.49-.29Z"/></g></svg>