<svg xmlns="http://www.w3.org/2000/svg" viewBox="0 0 142.14 221.89"><defs><style>.cls-1,.cls-2,.cls-3,.cls-4,.cls-5{fill:none;stroke-linecap:round;stroke-linejoin:round;}.cls-1,.cls-2,.cls-4{stroke:#231f20;}.cls-1{stroke-width:4px;}.cls-2{stroke-width:9px;}.cls-3,.cls-5{stroke:#ffd357;}.cls-3{stroke-width:3px;}.cls-4{stroke-width:14px;}.cls-5{stroke-width:6px;}</style></defs><title>sticker_Artboard 58</title><g id="Top_layer"><line class="cls-1" x1="56.05" y1="46.21" x2="47.38" y2="100.67"/><line class="cls-1" x1="67.88" y1="46.21" x2="59.2" y2="100.67"/><line class="cls-1" x1="79.71" y1="46.21" x2="65.99" y2="130.87"/><line class="cls-1" x1="91.53" y1="46.21" x2="77.82" y2="130.87"/><line class="cls-1" x1="103.36" y1="46.21" x2="85.62" y2="155.14"/><line class="cls-2" x1="114.22" y1="46.21" x2="92.5" y2="175.27"/><line class="cls-3" x1="114.22" y1="46.21" x2="92.5" y2="175.27"/><path class="cls-4" d="M116.78,40.16,49.88,50.3a17.66,17.66,0,0,0-12,27L90.39,159c7,10.89-1,25.65-13.92,24.94-6.15-.34-10.87-4.14-10.22-15.42"/><path class="cls-5" d="M116.78,40.16,49.88,50.3a17.66,17.66,0,0,0-12,27L90.39,159c7,10.89-1,25.65-13.92,24.94-6.15-.34-10.87-4.14-10.22-15.42"/></g></svg>