<svg xmlns="http://www.w3.org/2000/svg" viewBox="0 0 159.37 80.85"><defs><style>.cls-1{fill:#f3aa4d;}.cls-1,.cls-2,.cls-4{stroke:#231f20;stroke-miterlimit:10;}.cls-1,.cls-2{stroke-width:4px;}.cls-2{fill:#fff;}.cls-3{fill:#231f20;}.cls-4{fill:none;stroke-linecap:round;stroke-width:2px;}</style></defs><title>sticker_Artboard 41</title><g id="Top_layer"><path class="cls-1" d="M132,40.3c-5.35,18.27-13,8.84-38.86,14S60.56,72.19,39.71,63.35C29,58.81,29.51,42.05,49.93,34,60.66,21.28,73.78,8.34,98,6.58,135.23,3.88,133.79,34,132,40.3Z"/><circle class="cls-2" cx="103.41" cy="31.08" r="14.63"/><path class="cls-1" d="M146.16,56.86c.21,5.89-31.42,2.19-44.77,2.94C76.65,61.19,52.71,70.28,52.5,64.38s28.26-20.25,64.3-18.54C132.06,46.56,146,51,146.16,56.86Z"/><path class="cls-3" d="M98.7,29.94c3.22,0,3.22-5,0-5s-3.22,5,0,5Z"/><path class="cls-3" d="M109.4,28c3.21,0,3.22-5,0-5s-3.23,5,0,5Z"/><path class="cls-4" d="M102.56,31.09s2.34,3,4.73-.42"/></g></svg>