<svg xmlns="http://www.w3.org/2000/svg" viewBox="0 0 169.49 85.5"><defs><style>.cls-1{fill:#dbc492;}.cls-1,.cls-2{stroke:#231f20;stroke-linecap:round;stroke-miterlimit:10;stroke-width:4px;}.cls-2{fill:#8dc63f;}</style></defs><title>sticker_Artboard 46</title><g id="Top_layer"><ellipse class="cls-1" cx="74.87" cy="47.09" rx="65.33" ry="19.96"/><path class="cls-2" d="M106.52,42.78a96.68,96.68,0,0,1-34.35,6.6,96.7,96.7,0,0,1-34.36-6.6A34.14,34.14,0,0,1,39,33.91a97.93,97.93,0,0,0,33.2,6.14,97.91,97.91,0,0,0,33.19-6.14A34.14,34.14,0,0,1,106.52,42.78Z"/><path class="cls-1" d="M105.36,33.91a97.91,97.91,0,0,1-33.19,6.14A97.93,97.93,0,0,1,39,33.91a34.36,34.36,0,0,1,66.39,0Z"/></g></svg>