<svg xmlns="http://www.w3.org/2000/svg" viewBox="0 0 143.99 130.41"><defs><style>.cls-1{fill:#76b66a;}.cls-1,.cls-2,.cls-3,.cls-4{stroke:#231f20;stroke-linecap:round;stroke-linejoin:round;}.cls-1,.cls-2{stroke-width:4px;}.cls-2{fill:#e45b45;}.cls-3{fill:#fff;}.cls-4{fill:none;}</style></defs><title>sticker_Artboard 39</title><g id="Top_layer"><path class="cls-1" d="M45.69,84.6,49.3,66.78a12.92,12.92,0,0,1,19-8.65l62.37,35.48a2.63,2.63,0,0,1-1.64,4.89L47.91,87.73A2.62,2.62,0,0,1,45.69,84.6Z"/><path class="cls-1" d="M118.71,94.12c-.92,4.6-14.85,6.56-34.86,6.56S47.63,92.15,47.63,81.62,63.84,62.56,83.85,62.56,120.76,83.8,118.71,94.12Z"/><path class="cls-2" d="M63,73.08S38.74,81.23,23.58,33.73C23.58,33.73,62.24,39,63,73.08Z"/><line class="cls-3" x1="63" y1="73.08" x2="35.01" y2="44.85"/><polyline class="cls-4" points="36.05 51.81 42.61 52.52 41.97 45.82"/><polyline class="cls-4" points="42.84 58.52 49.41 59.22 48.76 52.52"/><polyline class="cls-4" points="48.76 64.8 55.32 65.5 54.68 58.8"/><path class="cls-1" d="M33.92,103.57l3.4-21.43A12.92,12.92,0,0,1,53.74,71.78l76,22.46a2.63,2.63,0,0,1-.54,5.14L36.72,106.6A2.63,2.63,0,0,1,33.92,103.57Z"/></g></svg>