<svg xmlns="http://www.w3.org/2000/svg" viewBox="0 0 88.14 166.69"><defs><style>.cls-1{fill:#8fa09d;}.cls-1,.cls-2,.cls-3,.cls-4{stroke:#231f20;stroke-linecap:round;stroke-linejoin:round;}.cls-1,.cls-3,.cls-4{stroke-width:4px;}.cls-2{fill:#ce8b40;stroke-width:3.4px;}.cls-3{fill:#aebab9;}.cls-4{fill:#cad7d5;}</style></defs><title>sticker_Artboard 48</title><g id="Top_layer"><path class="cls-1" d="M41.94,34a5.5,5.5,0,0,1-11,.74c-.2-3,1.36-16.47,4.39-16.67S41.73,31,41.94,34Z"/><path class="cls-1" d="M19.15,48.29a5.49,5.49,0,0,1,.73,11c-3,.2-16.46-1.36-16.67-4.39S16.12,48.49,19.15,48.29Z"/><path class="cls-1" d="M56.21,56.8a5.49,5.49,0,0,1-.74-11c3-.2,16.47,1.36,16.67,4.39S59.23,56.6,56.21,56.8Z"/><rect class="cls-2" x="36.09" y="40.2" width="10.4" height="119.9" rx="5.2" ry="5.2" transform="translate(-6.63 3) rotate(-3.85)"/><circle class="cls-3" cx="37.68" cy="52.54" r="19.75"/><path class="cls-4" d="M28.48,35.55a6.74,6.74,0,0,1-8.87,10.16C16.8,43.26,6.48,30.23,8.93,27.42S25.68,33.1,28.48,35.55Z"/><path class="cls-4" d="M20.68,61.74a6.75,6.75,0,0,1,10.16,8.88c-2.45,2.8-15.48,13.12-18.28,10.67S18.23,64.54,20.68,61.74Z"/><path class="cls-4" d="M54.67,43.35a6.75,6.75,0,1,1-10.16-8.88C47,31.67,60,21.35,62.8,23.8S57.12,40.55,54.67,43.35Z"/><path class="cls-4" d="M46.87,69.54a6.75,6.75,0,1,1,8.88-10.16c2.8,2.45,13.12,15.48,10.67,18.28S49.67,72,46.87,69.54Z"/></g></svg>