<svg xmlns="http://www.w3.org/2000/svg" xmlns:xlink="http://www.w3.org/1999/xlink" viewBox="0 0 117.17 89.83"><defs><style>.cls-1,.cls-2,.cls-6{fill:#58bbd9;}.cls-1,.cls-5,.cls-6,.cls-7,.cls-8{stroke:#231f20;}.cls-1,.cls-5{stroke-miterlimit:10;}.cls-1,.cls-5,.cls-6{stroke-width:4px;}.cls-3{clip-path:url(#clip-path);}.cls-4,.cls-8{fill:#fff;}.cls-5,.cls-7{fill:none;}.cls-6,.cls-7,.cls-8{stroke-linecap:round;stroke-linejoin:round;}.cls-7,.cls-8{stroke-width:2px;}</style><clipPath id="clip-path"><path id="_Clipping_Path_" data-name="&lt;Clipping Path&gt;" class="cls-1" d="M81.7,54.78c0,6.07,1,16-.4,16.39C78.52,72,72.6,66,61.53,66,52,66,39.77,70.47,31,71.16c-2.12.17-7.87,1-9.28-.44-3-3.1-1.49-8.82-.48-15.94,2.47-17.47,18.87-24.37,28.91-24.37S81.7,37.14,81.7,54.78Z"/></clipPath></defs><title>sticker_Artboard 53</title><g id="Top_layer"><path id="_Clipping_Path_2" data-name="&lt;Clipping Path&gt;" class="cls-2" d="M81.7,54.78c0,6.07,1,16-.4,16.39C78.52,72,72.6,66,61.53,66,52,66,39.77,70.47,31,71.16c-2.12.17-7.87,1-9.28-.44-3-3.1-1.49-8.82-.48-15.94,2.47-17.47,18.87-24.37,28.91-24.37S81.7,37.14,81.7,54.78Z"/><g class="cls-3"><path class="cls-4" d="M34.19,73.66s-8.58-43.25,25.3-40.09c26.88,2.52,24.62,2,26.87,38S34.19,73.66,34.19,73.66Z"/></g><path id="_Clipping_Path_3" data-name="&lt;Clipping Path&gt;" class="cls-5" d="M81.7,54.78c0,6.07,1,16-.4,16.39C78.52,72,72.6,66,61.53,66,52,66,39.77,70.47,31,71.16c-2.12.17-7.87,1-9.28-.44-3-3.1-1.49-8.82-.48-15.94,2.47-17.47,18.87-24.37,28.91-24.37S81.7,37.14,81.7,54.78Z"/><path class="cls-6" d="M97.77,82.83C73.83,74.92,70.4,88,60.23,88c-9.95,0-28.78-16.88-28.78-16.88C40.62,70.47,53.38,66,63.39,66a68.9,68.9,0,0,1,9,.6C81.68,67.78,83.74,73.3,94.62,80,99.3,82.92,97.57,82.66,97.77,82.83Z"/><path class="cls-7" d="M33.77,67.67S29.25,34.11,53.05,34.11"/><circle class="cls-8" cx="53.05" cy="24.49" r="3.57"/></g></svg>