<svg xmlns="http://www.w3.org/2000/svg" viewBox="0 0 121.88 50.1"><defs><style>.cls-1{fill:#231f20;}.cls-2{fill:#fff;}</style></defs><title>sticker_Artboard 51</title><g id="Top_layer"><path class="cls-1" d="M68.48,14.34a15.34,15.34,0,0,1-.56,4.15A15.68,15.68,0,0,1,52.79,30a15.49,15.49,0,0,1-8.48-2.49,15.69,15.69,0,0,1-6.64-9,15.34,15.34,0,0,1-.56-4.15Z"/><path class="cls-1" d="M103.05,14.34A15.69,15.69,0,0,1,82.44,29.23a15.18,15.18,0,0,1-3.63-1.74,15.72,15.72,0,0,1-6.57-9,15.34,15.34,0,0,1-.56-4.15Z"/><rect class="cls-1" x="28.09" y="14.34" width="72.79" height="4.15"/><polygon class="cls-1" points="28.09 14.33 12.09 18.25 10.5 23.64 13.9 23.64 15.01 21.03 28.09 18.49 28.09 14.33"/><path class="cls-2" d="M96.11,15.31l-3.61,3.6-9.33,9.35A13.1,13.1,0,0,1,80,26.74L91.45,15.31Z"/><path class="cls-2" d="M61.58,15.36,58,18.94l-9.29,9.29a13.64,13.64,0,0,1-3.13-1.49l7.79-7.8L57,15.36Z"/></g></svg>