<svg xmlns="http://www.w3.org/2000/svg" viewBox="0 0 172.16 84.03"><defs><style>.cls-1{fill:#58bbd9;}.cls-1,.cls-2,.cls-4{stroke:#231f20;stroke-miterlimit:10;}.cls-1,.cls-2{stroke-width:4px;}.cls-2{fill:#fff;}.cls-3{fill:#231f20;}.cls-4{fill:none;stroke-linecap:round;stroke-width:2px;}</style></defs><title>sticker_Artboard 40</title><g id="Top_layer"><path class="cls-1" d="M132,41.92c-5.35,18.27-13,8.84-38.86,14S60.56,73.81,39.71,65C29,60.43,29.51,43.67,49.93,35.66,60.66,22.9,73.78,10,98,8.2,135.23,5.5,133.79,35.66,132,41.92Z"/><circle class="cls-2" cx="103.41" cy="32.7" r="14.63"/><path class="cls-1" d="M146.16,58.48c.21,5.9-31.42,2.19-44.77,2.94C76.65,62.81,52.71,71.9,52.5,66s28.26-20.25,64.3-18.54C132.06,48.18,146,52.58,146.16,58.48Z"/><path class="cls-3" d="M98.7,31.57c3.22,0,3.22-5,0-5s-3.22,5,0,5Z"/><path class="cls-3" d="M109.4,29.67c3.21,0,3.22-5,0-5s-3.23,5,0,5Z"/><path class="cls-4" d="M102.56,32.71s2.34,3,4.73-.42"/></g></svg>