<svg xmlns="http://www.w3.org/2000/svg" viewBox="0 0 119.33 80.71"><defs><style>.cls-1,.cls-2,.cls-3{fill:#e45b45;stroke:#231f20;}.cls-1,.cls-3{stroke-linecap:round;stroke-linejoin:round;}.cls-1,.cls-2{stroke-width:4px;}.cls-2{stroke-miterlimit:10;}.cls-3{stroke-width:2px;}</style></defs><title>sticker_Artboard 54</title><g id="Top_layer"><path class="cls-1" d="M13.35,71.34c23.48-5.06,27.31-2.2,37.4-3.5,9.86-1.27,28-7.94,28-7.94-9.11,1-21.92,1.5-31.84,2.78-3.35.44-6.3.88-8.88,1.3-9.2,1.51-11.06,3.16-21.64,6.25C11.83,71.56,13.54,71.27,13.35,71.34Z"/><path class="cls-2" d="M101.72,49.89c0,6.06,1,16-.4,16.38-2.77.83-8.7-5.22-19.76-5.22C72,61.05,59.79,65.57,51,66.26c-2.12.17-7.86,1-9.27-.44-3-3.09-1.49-8.82-.49-15.93,2.47-17.47,18.87-24.38,28.91-24.38S101.72,32.24,101.72,49.89Z"/><path class="cls-3" d="M51.09,62.86S46.91,29.3,69,29.3"/><circle class="cls-3" cx="71.02" cy="17.93" r="3.57"/></g></svg>