<svg xmlns="http://www.w3.org/2000/svg" viewBox="0 0 163.33 196.67"><defs><style>.cls-1,.cls-2,.cls-3,.cls-5,.cls-6,.cls-9{fill:none;}.cls-1,.cls-10,.cls-2,.cls-4,.cls-5,.cls-7{stroke:#231f20;}.cls-1,.cls-2,.cls-3,.cls-4,.cls-5,.cls-6,.cls-9{stroke-linecap:round;}.cls-1,.cls-2,.cls-3,.cls-4,.cls-5,.cls-6,.cls-7,.cls-9{stroke-miterlimit:10;}.cls-1,.cls-10{stroke-width:2px;}.cls-2{stroke-width:12px;}.cls-3,.cls-6,.cls-9{stroke:#fff;}.cls-3,.cls-4,.cls-7{stroke-width:4px;}.cls-10,.cls-11,.cls-4,.cls-7{fill:#fff;}.cls-5{stroke-width:16px;}.cls-6{stroke-width:8px;}.cls-8{fill:#231f20;}.cls-9{stroke-width:5px;}.cls-10{stroke-linejoin:round;}</style></defs><title>sticker_Artboard 28</title><g id="Top_layer"><path class="cls-1" d="M124.15,123.27s9-28-1.76-55.3"/><path class="cls-1" d="M136.26,133s12.53-39.11-2.45-77.31"/><path class="cls-1" d="M114,118.24s7-21.78-1.37-43"/><path class="cls-2" d="M97.05,98s18.09,9.43,34.87,18.47"/><path class="cls-3" d="M97.05,98s18.09,9.43,34.87,18.47"/><circle class="cls-4" cx="138.03" cy="120.95" r="9.14"/><path class="cls-1" d="M31.19,122.83s-12-26.83-4.3-55.16"/><path class="cls-1" d="M20.22,133.81s-16.73-37.51-6-77.12"/><path class="cls-1" d="M40.76,116.72s-9.31-20.88-3.35-42.94"/><path class="cls-5" d="M51.78,173.47S75,156.38,59.7,134.76"/><path class="cls-6" d="M51.78,173.47S75,156.38,59.7,134.76"/><rect class="cls-7" x="39.62" y="169.68" width="28" height="14.04" rx="7.02" ry="7.02" transform="translate(107.25 353.4) rotate(180)"/><path class="cls-2" d="M97.05,98s15.57-13.18,30.28-25.3"/><path class="cls-3" d="M97.05,98s15.57-13.18,30.28-25.3"/><path class="cls-5" d="M87.07,174.78s18.24-22.36-2-39.45"/><path class="cls-6" d="M87.07,174.78s18.24-22.36-2-39.45"/><rect class="cls-4" x="50.83" y="88.16" width="50.04" height="54.89" rx="12" ry="12" transform="translate(151.71 231.2) rotate(-180)"/><path class="cls-7" d="M35.3,48.16A42.34,42.34,0,1,0,77.64,5.82,42.34,42.34,0,0,0,35.3,48.16Z"/><circle class="cls-8" cx="82.87" cy="49.2" r="5.28"/><circle class="cls-8" cx="109.21" cy="49.2" r="5.28"/><path class="cls-2" d="M58.11,94.62s-13.6-5.55-38.59-18.46"/><path class="cls-9" d="M58.11,94.62s-13.6-5.55-38.59-18.46"/><circle class="cls-4" cx="133.74" cy="68.75" r="9.14"/><circle class="cls-4" cx="16.04" cy="72.74" r="9.14"/><path class="cls-2" d="M58.11,94.62s-12.29,8-37.11,21.28"/><path class="cls-9" d="M58.11,94.62s-12.29,8-37.11,21.28"/><circle class="cls-4" cx="16.2" cy="116.83" r="9.14"/><rect class="cls-7" x="80.71" y="169.68" width="28" height="14.04" rx="7.02" ry="7.02" transform="translate(189.42 353.4) rotate(-180)"/><path class="cls-10" d="M106.31,55c0,7.91-4.89,14.32-10.92,14.32S84.47,63,84.47,55Z"/><path class="cls-11" d="M109.07,51.12l-1.21.64a.31.31,0,0,1-.44-.32l.23-1.35a.29.29,0,0,0-.08-.26l-1-.95a.31.31,0,0,1,.17-.52l1.35-.19a.3.3,0,0,0,.22-.17l.61-1.22a.3.3,0,0,1,.54,0l.6,1.22a.31.31,0,0,0,.23.17l1.35.19a.31.31,0,0,1,.16.52l-1,.95a.29.29,0,0,0-.09.26l.23,1.35a.3.3,0,0,1-.43.32l-1.21-.64A.28.28,0,0,0,109.07,51.12Z"/><path class="cls-11" d="M82.73,51.12l-1.21.64a.3.3,0,0,1-.43-.32l.23-1.35a.32.32,0,0,0-.09-.26l-1-.95a.31.31,0,0,1,.17-.52l1.35-.19A.33.33,0,0,0,82,48l.6-1.22a.3.3,0,0,1,.54,0l.6,1.22a.33.33,0,0,0,.23.17l1.35.19a.31.31,0,0,1,.17.52l-1,.95a.32.32,0,0,0-.09.26l.23,1.35a.3.3,0,0,1-.43.32L83,51.12A.28.28,0,0,0,82.73,51.12Z"/></g></svg>