<svg xmlns="http://www.w3.org/2000/svg" viewBox="0 0 88.26 288.64"><defs><style>.cls-1,.cls-2,.cls-3,.cls-4,.cls-7,.cls-9{fill:none;}.cls-1,.cls-3,.cls-5,.cls-6,.cls-9{stroke:#231f20;}.cls-1,.cls-2,.cls-3,.cls-4,.cls-5,.cls-7,.cls-9{stroke-linecap:round;}.cls-1,.cls-2,.cls-3,.cls-4,.cls-5,.cls-6,.cls-7,.cls-9{stroke-miterlimit:10;}.cls-1{stroke-width:12px;}.cls-2,.cls-4,.cls-7{stroke:#fff;}.cls-2,.cls-5,.cls-6{stroke-width:4px;}.cls-3{stroke-width:16px;}.cls-4{stroke-width:8px;}.cls-5,.cls-6{fill:#fff;}.cls-7{stroke-width:5px;}.cls-8{fill:#231f20;}.cls-9{stroke-width:3px;}</style></defs><title>sticker_Artboard 21</title><g id="Top_layer"><path class="cls-1" d="M45.11,228.4s-27.94-4.57-19.25,23.18"/><path class="cls-2" d="M45.11,228.4s-27.94-4.57-19.25,23.18"/><path class="cls-3" d="M21.15,267.92s9.29-20,27.76-11.73"/><path class="cls-4" d="M21.15,267.92s9.29-20,27.76-11.73"/><rect class="cls-5" x="35.48" y="221.29" width="38.16" height="41.85" rx="9.15" ry="9.15" transform="translate(-3.98 0.93) rotate(-0.94)"/><path class="cls-6" d="M83.87,195.68a34.54,34.54,0,0,1-67.69,3.45,34.53,34.53,0,0,1,3.71-25.84,34.54,34.54,0,0,1,64,22.39Z"/><path class="cls-1" d="M70.61,227.18s17.61,14.33-7.3,29.33"/><path class="cls-7" d="M70.61,227.18s17.61,14.33-7.3,29.33"/><circle class="cls-5" cx="25.86" cy="251.58" r="6.97"/><circle class="cls-5" cx="61.53" cy="254.4" r="6.97"/><rect class="cls-6" x="6.62" y="257.95" width="21.35" height="10.71" rx="5.35" ry="5.35" transform="translate(246.79 133.06) rotate(64.18)"/><path class="cls-3" d="M51.33,268.19s4.33-10,13.59-6.18"/><path class="cls-4" d="M51.33,268.19s4.33-10,13.59-6.18"/><rect class="cls-6" x="36.89" y="260.14" width="21.35" height="10.71" rx="5.35" ry="5.35" transform="translate(295.72 159.82) rotate(77.09)"/><circle class="cls-8" cx="25.89" cy="181.56" r="4.74"/><circle class="cls-8" cx="53.92" cy="181.56" r="4.74"/><path class="cls-9" d="M35.48,187.59a4.39,4.39,0,0,0,8.77,0"/></g></svg>