<svg xmlns="http://www.w3.org/2000/svg" viewBox="0 0 133.49 284.15"><defs><style>.cls-1,.cls-10,.cls-11,.cls-2,.cls-4,.cls-5,.cls-7,.cls-9{fill:none;}.cls-1,.cls-10,.cls-11,.cls-3,.cls-4,.cls-6,.cls-9{stroke:#231f20;}.cls-1,.cls-10,.cls-11,.cls-2,.cls-4,.cls-5,.cls-6,.cls-7,.cls-9{stroke-linecap:round;}.cls-1,.cls-2,.cls-3,.cls-4,.cls-5,.cls-6,.cls-7{stroke-miterlimit:10;}.cls-1{stroke-width:16px;}.cls-2,.cls-5,.cls-7{stroke:#fff;}.cls-2{stroke-width:8px;}.cls-3,.cls-6{fill:#fff;}.cls-3,.cls-5,.cls-6,.cls-9{stroke-width:4px;}.cls-4{stroke-width:12px;}.cls-7{stroke-width:5px;}.cls-8{fill:#231f20;}.cls-10,.cls-11,.cls-9{stroke-linejoin:round;}.cls-10{stroke-width:2px;}.cls-11{stroke-width:3px;}</style></defs><title>sticker_Artboard 6</title><g id="Top_layer"><path class="cls-1" d="M44.33,266.41S53.84,244.83,47.1,227"/><path class="cls-2" d="M44.33,266.41S53.84,244.83,47.1,227"/><rect class="cls-3" x="35.52" y="262.2" width="28" height="14.04" rx="7.02" ry="7.02" transform="translate(99.03 538.44) rotate(-180)"/><path class="cls-4" d="M80.46,185.07s36.59,6.25,14,37"/><path class="cls-5" d="M80.46,185.07s36.59,6.25,14,37"/><path class="cls-1" d="M87.5,267.49s14.23-25.11-8.6-38.57"/><path class="cls-2" d="M87.5,267.49s14.23-25.11-8.6-38.57"/><rect class="cls-6" x="41.42" y="180.68" width="50.04" height="54.89" rx="12" ry="12" transform="translate(132.89 416.24) rotate(-180)"/><path class="cls-3" d="M25.89,140.68A42.34,42.34,0,1,0,68.23,98.34,42.34,42.34,0,0,0,25.89,140.68Z"/><path class="cls-4" d="M44.71,189.64s-32.57-.2-7.12,28.2"/><path class="cls-7" d="M44.71,189.64s-32.57-.2-7.12,28.2"/><circle class="cls-6" cx="101.82" cy="222.03" r="9.14"/><circle class="cls-6" cx="33.29" cy="221.85" r="9.14"/><rect class="cls-3" x="80.09" y="259.39" width="28" height="14.04" rx="7.02" ry="7.02" transform="translate(268.81 488.46) rotate(161.25)"/><circle class="cls-8" cx="75.01" cy="141.72" r="3.89"/><circle class="cls-8" cx="98.64" cy="141.72" r="3.89"/><line class="cls-9" x1="71.26" y1="133.31" x2="80.04" y2="135.99"/><line class="cls-9" x1="94.75" y1="133.31" x2="103.53" y2="133.31"/><path class="cls-9" d="M83.22,154.85s3.68-3.52,7.79-2.14"/><path class="cls-10" d="M50.52,119.4s6.77.64,6.77-6.64"/><path class="cls-10" d="M50.52,122.73s6.77-.64,6.77,6.64"/><path class="cls-10" d="M67.63,119.4s-6.77.64-6.77-6.64"/><path class="cls-10" d="M67.63,122.73s-6.77-.64-6.77,6.64"/><line class="cls-11" x1="111.84" y1="270.66" x2="123.16" y2="265.81"/><line class="cls-11" x1="111.84" y1="275.47" x2="124.18" y2="275.47"/></g></svg>