<svg xmlns="http://www.w3.org/2000/svg" viewBox="0 0 113.79 284.15"><defs><style>.cls-1,.cls-2,.cls-4,.cls-5,.cls-8,.cls-9{fill:none;}.cls-1,.cls-3,.cls-4,.cls-6,.cls-9{stroke:#231f20;}.cls-1,.cls-2,.cls-3,.cls-4,.cls-5,.cls-8,.cls-9{stroke-linecap:round;}.cls-1,.cls-2,.cls-3,.cls-4,.cls-5,.cls-6,.cls-8{stroke-miterlimit:10;}.cls-1{stroke-width:12px;}.cls-2,.cls-5,.cls-8{stroke:#fff;}.cls-2,.cls-3,.cls-6,.cls-9{stroke-width:4px;}.cls-10,.cls-3,.cls-6{fill:#fff;}.cls-4{stroke-width:16px;}.cls-5{stroke-width:8px;}.cls-7{fill:#231f20;}.cls-8{stroke-width:5px;}.cls-9{stroke-linejoin:round;}</style></defs><title>sticker_Artboard 10</title><g id="Top_layer"><path class="cls-1" d="M72.26,189s33.87,15.17,4.33,39.27"/><path class="cls-2" d="M72.26,189s33.87,15.17,4.33,39.27"/><circle class="cls-3" cx="76.59" cy="228.29" r="9.14"/><path class="cls-4" d="M33.75,267.31s10.33-22.08,0-39.47"/><path class="cls-5" d="M33.75,267.31s10.33-22.08,0-39.47"/><rect class="cls-6" x="22.05" y="262.2" width="28" height="14.04" rx="7.02" ry="7.02" transform="translate(72.1 538.44) rotate(-180)"/><path class="cls-4" d="M65.14,267.31s10.34-22.08,0-39.47"/><path class="cls-5" d="M65.14,267.31s10.34-22.08,0-39.47"/><rect class="cls-6" x="58.26" y="262.2" width="28" height="14.04" rx="7.02" ry="7.02" transform="translate(144.52 538.44) rotate(-180)"/><rect class="cls-3" x="24.77" y="180.68" width="50.04" height="54.89" rx="12" ry="12" transform="translate(99.58 416.24) rotate(-180)"/><path class="cls-6" d="M9.24,140.68A42.34,42.34,0,1,0,51.58,98.34,42.34,42.34,0,0,0,9.24,140.68Z"/><circle class="cls-7" cx="53.81" cy="145.72" r="3.89"/><circle class="cls-7" cx="80.14" cy="145.72" r="3.89"/><path class="cls-1" d="M30.71,188.19s31.19,32.17,35.52-19.8"/><path class="cls-8" d="M30.71,188.19s32.08,31.59,35.52-19.8"/><circle class="cls-3" cx="66.71" cy="162.03" r="9.14"/><path class="cls-9" d="M46.79,137.31a6.24,6.24,0,0,1,12.47,0"/><line class="cls-9" x1="76.25" y1="137.31" x2="85.03" y2="137.31"/><path class="cls-10" d="M47.63,90.79c-2.59,0-4.45-.55-5.7-1.68a6.29,6.29,0,0,1-1.53-4.69v-1a20,20,0,0,1,.1-2.34,6.79,6.79,0,0,1,.74-2.2,4.39,4.39,0,0,1,2.61-2.12,11.81,11.81,0,0,1,3.84-.51c2.66,0,4.52.56,5.68,1.73s1.55,2.84,1.55,5.62a15.52,15.52,0,0,1-.14,2.43A7.34,7.34,0,0,1,54,88.22a4.26,4.26,0,0,1-2.64,2.1A12.38,12.38,0,0,1,47.63,90.79Zm.18-16.21a12.35,12.35,0,0,1-3.28-.36,3.9,3.9,0,0,1-2.39-1.74,5.38,5.38,0,0,1-.71-1.84,14.93,14.93,0,0,1-.11-2.06,2.68,2.68,0,0,1,.06-.52,7.18,7.18,0,0,1,1.94-5.21,8.85,8.85,0,0,1,4-2.43A8,8,0,0,0,50.07,59a2.23,2.23,0,0,0,.93-1.9A2.84,2.84,0,0,0,50.31,55c-.26-.26-1-.69-2.93-.69a3.58,3.58,0,0,0-2,.47,2.08,2.08,0,0,0-.71.64l-.17.66a.56.56,0,0,1,0,.12,8.43,8.43,0,0,1-1.58,2.94,4.16,4.16,0,0,1-3.22,1.34,8.56,8.56,0,0,1-3-.65,11.76,11.76,0,0,1-3.76-2.12,4.11,4.11,0,0,1-1.35-3,9.42,9.42,0,0,1,.56-2.59s0-.08,0-.12l.13-.31c0-.17.18-.53.36-1a12.58,12.58,0,0,1,1.48-2.55A15.74,15.74,0,0,1,36.88,45a15.44,15.44,0,0,1,4.33-2.47,16.41,16.41,0,0,1,6.17-1.13,15.81,15.81,0,0,1,11.73,4.64,15,15,0,0,1,4.57,10.79,14,14,0,0,1-1.08,5.49,11.94,11.94,0,0,1-2.66,4,20.09,20.09,0,0,1-3,2.37,15.81,15.81,0,0,1-2.57,1.39l-.07,0a6.82,6.82,0,0,1-.09.74,4.29,4.29,0,0,1-.81,1.82,4.06,4.06,0,0,1-2.39,1.51A13.07,13.07,0,0,1,47.81,74.58Z"/><path class="cls-7" d="M47.38,42.94a14.35,14.35,0,0,1,10.67,4.19,13.48,13.48,0,0,1,4.13,9.74,12.34,12.34,0,0,1-1,4.9,10.71,10.71,0,0,1-2.31,3.55,18.81,18.81,0,0,1-2.74,2.18,14.54,14.54,0,0,1-2.32,1.27l-1,.31a10.67,10.67,0,0,1-.09,1.6,3.06,3.06,0,0,1-.56,1.2,2.64,2.64,0,0,1-1.54.93,12.28,12.28,0,0,1-2.87.27,11,11,0,0,1-2.86-.3,2.42,2.42,0,0,1-1.51-1,4.17,4.17,0,0,1-.53-1.33,13.13,13.13,0,0,1-.09-1.82,1.26,1.26,0,0,1,0-.21,1.49,1.49,0,0,0,0-.28,5.75,5.75,0,0,1,1.51-4.19,7.28,7.28,0,0,1,3.3-2A9.53,9.53,0,0,0,51,60.2a3.73,3.73,0,0,0,1.51-3.08,4.28,4.28,0,0,0-1.14-3.21c-.76-.74-2.09-1.11-4-1.11a5,5,0,0,0-2.8.71A3.15,3.15,0,0,0,43.25,55l-.18.74a7.17,7.17,0,0,1-1.3,2.44,2.66,2.66,0,0,1-2.09.83,7.38,7.38,0,0,1-2.47-.56A10.23,10.23,0,0,1,34,56.63a2.63,2.63,0,0,1-.9-1.92,9.46,9.46,0,0,1,.5-2.15l.12-.31c.08-.25.2-.59.37-1A13.46,13.46,0,0,1,35.39,49a12.47,12.47,0,0,1,6.38-5,14.9,14.9,0,0,1,5.61-1m.31,34.83q3.33,0,4.62,1.29,1.11,1.11,1.11,4.56a15.1,15.1,0,0,1-.12,2.19,5.78,5.78,0,0,1-.62,1.73,2.8,2.8,0,0,1-1.75,1.35,11.16,11.16,0,0,1-3.3.4c-2.18,0-3.74-.43-4.69-1.29a5,5,0,0,1-1-3.58v-1A19.22,19.22,0,0,1,42,81.28a5.3,5.3,0,0,1,.58-1.69,2.94,2.94,0,0,1,1.76-1.39,10.59,10.59,0,0,1,3.36-.43m-.31-37.83a18,18,0,0,0-6.73,1.24,16.76,16.76,0,0,0-4.76,2.73,17.2,17.2,0,0,0-3,3.4,15.31,15.31,0,0,0-1.64,2.86c-.16.43-.29.77-.38,1l-.09.23c0,.08-.06.16-.08.23a10.69,10.69,0,0,0-.63,3,5.58,5.58,0,0,0,1.81,4.07,12.7,12.7,0,0,0,4.22,2.42l0,0a10.18,10.18,0,0,0,3.52.75A5.6,5.6,0,0,0,44,60.13a10,10,0,0,0,1.88-3.45,2.41,2.41,0,0,0,.08-.25l.07-.29.18-.12a2.13,2.13,0,0,1,1.15-.22,4,4,0,0,1,1.92.29,1.89,1.89,0,0,1,.2,1,.74.74,0,0,1-.35.71A6.35,6.35,0,0,1,46.89,59a10.33,10.33,0,0,0-4.64,2.83,8.61,8.61,0,0,0-2.37,6.11,3.88,3.88,0,0,0-.06.67A15,15,0,0,0,40,70.87a6.57,6.57,0,0,0,.9,2.37,5.16,5.16,0,0,0,2.47,2.13,5.87,5.87,0,0,0-3.41,2.84,8,8,0,0,0-.9,2.7,21,21,0,0,0-.11,2.53v1a7.78,7.78,0,0,0,1.92,5.7l.1.1c1.53,1.39,3.73,2.07,6.71,2.07a13.69,13.69,0,0,0,4.2-.54,5.73,5.73,0,0,0,3.52-2.84,8.64,8.64,0,0,0,.91-2.62,17.29,17.29,0,0,0,.16-2.67c0-3.2-.63-5.32-2-6.68a6.48,6.48,0,0,0-2.27-1.46,5.32,5.32,0,0,0,2.5-1.85,5.94,5.94,0,0,0,1.07-2.42A20.71,20.71,0,0,0,57.79,70,21.9,21.9,0,0,0,61,67.49a13.51,13.51,0,0,0,3-4.55,15.43,15.43,0,0,0,1.2-6.07,16.39,16.39,0,0,0-5-11.84,17.25,17.25,0,0,0-12.8-5.09Z"/></g></svg>