<svg xmlns="http://www.w3.org/2000/svg" viewBox="0 0 139.03 288.64"><defs><style>.cls-1,.cls-2,.cls-5,.cls-6,.cls-7{fill:none;}.cls-1,.cls-3,.cls-4,.cls-5,.cls-6,.cls-8{stroke:#231f20;}.cls-1,.cls-2,.cls-4,.cls-5,.cls-6,.cls-7{stroke-linecap:round;}.cls-1,.cls-2,.cls-3,.cls-4,.cls-5,.cls-6,.cls-7{stroke-miterlimit:10;}.cls-1{stroke-width:16px;}.cls-2,.cls-7{stroke:#fff;}.cls-2{stroke-width:8px;}.cls-3,.cls-4,.cls-8{fill:#fff;}.cls-3,.cls-4{stroke-width:4px;}.cls-5{stroke-width:3px;}.cls-6{stroke-width:12px;}.cls-7{stroke-width:5px;}.cls-8{stroke-linejoin:round;stroke-width:2px;}</style></defs><title>sticker_Artboard 13</title><g id="Top_layer"><path class="cls-1" d="M27.6,270.47s13.07-17.09,4.45-38.71"/><path class="cls-2" d="M27.6,270.47s13.07-17.09,4.45-38.71"/><rect class="cls-3" x="19.47" y="266.68" width="28" height="14.04" rx="7.02" ry="7.02" transform="translate(66.94 547.4) rotate(-180)"/><path class="cls-1" d="M65.63,271.78s10.26-22.36-1.13-39.45"/><path class="cls-2" d="M65.63,271.78s10.26-22.36-1.13-39.45"/><rect class="cls-4" x="24.8" y="185.16" width="50.04" height="54.89" rx="12" ry="12" transform="translate(99.65 425.2) rotate(-180)"/><path class="cls-3" d="M9.27,145.16a42.34,42.34,0,1,0,42.34-42.34A42.34,42.34,0,0,0,9.27,145.16Z"/><path class="cls-5" d="M61.22,136.24a4.38,4.38,0,1,0-8.76,0"/><path class="cls-5" d="M87.56,136.24a4.39,4.39,0,0,0-8.77,0"/><path class="cls-6" d="M26.8,190.35s-31,8.81,2,25.72"/><path class="cls-7" d="M26.8,190.35s-31,8.81,2,25.72"/><circle class="cls-4" cx="33.47" cy="213.21" r="9.14"/><path class="cls-6" d="M75,190.35s31,8.81-2,25.72"/><path class="cls-7" d="M75,190.35s31,8.81-2,25.72"/><circle class="cls-4" cx="68.68" cy="211.59" r="9.14"/><rect class="cls-3" x="58.6" y="266.68" width="28" height="14.04" rx="7.02" ry="7.02" transform="translate(145.19 547.4) rotate(180)"/><path class="cls-8" d="M74.74,142.84c0,3.71-2.29,6.72-5.12,6.72s-5.12-3-5.12-6.72Z"/><line class="cls-4" x1="101.14" y1="122.65" x2="120.54" y2="111.75"/><line class="cls-4" x1="103.86" y1="135.88" x2="125.81" y2="132.23"/><line class="cls-4" x1="103.96" y1="147.73" x2="125.71" y2="152.46"/></g></svg>