<svg xmlns="http://www.w3.org/2000/svg" viewBox="0 0 153.33 196.67"><defs><style>.cls-1,.cls-2,.cls-4,.cls-5,.cls-8{fill:none;}.cls-1,.cls-3,.cls-4,.cls-6,.cls-9{stroke:#231f20;}.cls-1,.cls-2,.cls-4,.cls-5,.cls-6,.cls-8{stroke-linecap:round;}.cls-1,.cls-2,.cls-3,.cls-4,.cls-5,.cls-6,.cls-8{stroke-miterlimit:10;}.cls-1{stroke-width:16px;}.cls-2,.cls-5,.cls-8{stroke:#fff;}.cls-2{stroke-width:8px;}.cls-3,.cls-6,.cls-9{fill:#fff;}.cls-3,.cls-5,.cls-6{stroke-width:4px;}.cls-4{stroke-width:12px;}.cls-7{fill:#231f20;}.cls-8{stroke-width:5px;}.cls-9{stroke-linejoin:round;stroke-width:2px;}</style></defs><title>sticker_Artboard 24</title><g id="Top_layer"><path class="cls-1" d="M22.5,170.88s28.61-3.79,25.57-30.12"/><path class="cls-2" d="M22.5,170.88s28.61-3.79,25.57-30.12"/><rect class="cls-3" x="9.23" y="171.45" width="28" height="14.04" rx="7.02" ry="7.02" transform="translate(-141.63 250.68) rotate(-106.23)"/><path class="cls-4" d="M88.34,102.55s45.33,26.88,34.39-26.95"/><path class="cls-5" d="M88.34,102.55s45.33,26.88,34.39-26.95"/><path class="cls-1" d="M106.63,179.87s.24-32-27.82-37.21"/><path class="cls-2" d="M106.63,179.87s.24-32-27.82-37.21"/><rect class="cls-6" x="41.66" y="94.22" width="50.04" height="54.89" rx="12" ry="12" transform="translate(133.37 243.32) rotate(-180)"/><path class="cls-3" d="M26.14,54.22A42.34,42.34,0,1,0,68.48,11.88,42.34,42.34,0,0,0,26.14,54.22Z"/><circle class="cls-7" cx="73.7" cy="43.8" r="3.89"/><circle class="cls-7" cx="100.04" cy="43.8" r="3.89"/><path class="cls-4" d="M45.25,100.37s-27.81-17-20.62,20.5"/><path class="cls-8" d="M45.25,100.37s-27.81-17-20.62,20.5"/><circle class="cls-6" cx="122.72" cy="80.43" r="9.14"/><circle class="cls-6" cx="23.83" cy="119.95" r="9.14"/><rect class="cls-3" x="99.8" y="172.81" width="28" height="14.04" rx="7.02" ry="7.02" transform="translate(309.15 264.23) rotate(145.69)"/><path class="cls-9" d="M94.74,50.13c0,3.7-2.29,6.71-5.12,6.71s-5.12-3-5.12-6.71Z"/></g></svg>