<svg xmlns="http://www.w3.org/2000/svg" viewBox="0 0 180 230.5"><defs><style>.cls-1,.cls-10,.cls-2,.cls-4,.cls-5,.cls-8,.cls-9{fill:none;}.cls-1,.cls-10,.cls-3,.cls-4,.cls-6,.cls-8{stroke:#231f20;}.cls-1,.cls-10,.cls-2,.cls-4,.cls-5,.cls-6,.cls-8,.cls-9{stroke-linecap:round;}.cls-1,.cls-10,.cls-2,.cls-3,.cls-4,.cls-5,.cls-6,.cls-8,.cls-9{stroke-miterlimit:10;}.cls-1{stroke-width:16px;}.cls-2,.cls-5,.cls-9{stroke:#fff;}.cls-2{stroke-width:8px;}.cls-3,.cls-6{fill:#fff;}.cls-3,.cls-5,.cls-6{stroke-width:4px;}.cls-4{stroke-width:12px;}.cls-7{fill:#231f20;}.cls-8{stroke-width:3px;}.cls-9{stroke-width:5px;}.cls-10{stroke-width:2px;}</style></defs><title>sticker_Artboard 22</title><g id="Top_layer"><path class="cls-1" d="M58.68,214.05S81.94,197,66.61,175.34"/><path class="cls-2" d="M58.68,214.05S81.94,197,66.61,175.34"/><rect class="cls-3" x="46.53" y="210.26" width="28" height="14.04" rx="7.02" ry="7.02" transform="translate(121.06 434.57) rotate(-180)"/><path class="cls-4" d="M108.34,142s20.39,31,39.46-2"/><path class="cls-5" d="M108.34,142s20.39,31,39.46-2"/><path class="cls-1" d="M94,215.37s18.25-22.36-2-39.46"/><path class="cls-2" d="M94,215.37s18.25-22.36-2-39.46"/><rect class="cls-6" x="57.73" y="128.74" width="50.04" height="54.89" rx="12" ry="12" transform="translate(165.51 312.37) rotate(-180)"/><path class="cls-3" d="M42.21,88.74A42.34,42.34,0,1,0,84.55,46.4,42.34,42.34,0,0,0,42.21,88.74Z"/><circle class="cls-7" cx="89.77" cy="89.78" r="3.89"/><circle class="cls-7" cx="116.11" cy="89.78" r="3.89"/><path class="cls-8" d="M99.57,95.81a4.39,4.39,0,1,0,8.77,0"/><path class="cls-4" d="M59.73,136.93s-31,9.94,2,29"/><path class="cls-9" d="M59.73,136.93s-31,9.94,2,29"/><circle class="cls-6" cx="147.8" cy="139.96" r="9.14"/><circle class="cls-6" cx="60.53" cy="165.93" r="9.14"/><rect class="cls-3" x="87.61" y="210.26" width="28" height="14.04" rx="7.02" ry="7.02" transform="translate(203.23 434.57) rotate(-180)"/><path class="cls-3" d="M127.55,54.54c-5.35,18.27-13,8.84-38.86,14s-32.54,17.89-53.38,9c-10.71-4.54-10.2-21.3,10.21-29.31C56.26,35.52,69.37,22.59,93.63,20.83,130.82,18.13,129.39,48.28,127.55,54.54Z"/><circle class="cls-3" cx="99.01" cy="45.32" r="14.63"/><path class="cls-3" d="M141.76,71.1C142,77,110.34,73.29,97,74,72.24,75.43,48.3,84.52,48.1,78.62s28.25-20.25,64.3-18.54C127.66,60.8,141.55,65.2,141.76,71.1Z"/><path class="cls-7" d="M94.29,44.19c3.22,0,3.23-5,0-5s-3.22,5,0,5Z"/><path class="cls-7" d="M105,42.29c3.22,0,3.22-5,0-5s-3.22,5,0,5Z"/><path class="cls-10" d="M98.16,45.33s2.33,3,4.73-.42"/><path class="cls-7" d="M124.27,98c0,5-10.8,13-20.32,7.1C94.44,110.94,83.64,103,83.64,98c8.14,2.44,15.18-11.53,20.31-1.34C109.08,86.44,116.12,100.41,124.27,98Z"/></g></svg>