<svg xmlns="http://www.w3.org/2000/svg" viewBox="0 0 104.67 196.67"><defs><style>.cls-1,.cls-2,.cls-4,.cls-5,.cls-7,.cls-8{fill:none;}.cls-1,.cls-3,.cls-4,.cls-6,.cls-7,.cls-9{stroke:#231f20;}.cls-1,.cls-2,.cls-4,.cls-5,.cls-6,.cls-7,.cls-8{stroke-linecap:round;}.cls-1,.cls-2,.cls-3,.cls-4,.cls-5,.cls-6,.cls-7,.cls-8{stroke-miterlimit:10;}.cls-1{stroke-width:16px;}.cls-2,.cls-5,.cls-8{stroke:#fff;}.cls-2{stroke-width:8px;}.cls-3,.cls-6,.cls-9{fill:#fff;}.cls-3,.cls-5,.cls-6{stroke-width:4px;}.cls-4{stroke-width:12px;}.cls-7,.cls-9{stroke-width:3px;}.cls-8{stroke-width:5px;}.cls-9{stroke-linejoin:round;}</style></defs><title>sticker_Artboard 30</title><g id="Top_layer"><path class="cls-1" d="M31.37,173s23.26-17.09,7.92-38.71"/><path class="cls-2" d="M31.37,173s23.26-17.09,7.92-38.71"/><rect class="cls-3" x="19.22" y="169.23" width="28" height="14.04" rx="7.02" ry="7.02" transform="translate(66.44 352.51) rotate(-180)"/><path class="cls-4" d="M62.58,103.1s41,14.35,24-27.59"/><path class="cls-5" d="M62.58,103.1s41,14.35,24-27.59"/><path class="cls-1" d="M66.66,174.34s18.25-22.36-2-39.46"/><path class="cls-2" d="M66.66,174.34s18.25-22.36-2-39.46"/><rect class="cls-6" x="30.42" y="87.71" width="50.04" height="54.89" rx="12" ry="12" transform="translate(110.89 230.31) rotate(-180)"/><path class="cls-3" d="M14.9,47.71A42.34,42.34,0,1,0,57.24,5.37,42.34,42.34,0,0,0,14.9,47.71Z"/><path class="cls-7" d="M72.26,59.79a4.39,4.39,0,0,0,8.77,0"/><path class="cls-4" d="M38.53,98.19s23.85,20.4,33.83-17.71"/><path class="cls-8" d="M38.53,98.19s23.85,20.4,33.83-17.71"/><circle class="cls-6" cx="85.79" cy="73.45" r="9.14"/><circle class="cls-6" cx="74.21" cy="74.83" r="9.14"/><rect class="cls-3" x="60.3" y="169.23" width="28" height="14.04" rx="7.02" ry="7.02" transform="translate(148.61 352.51) rotate(180)"/><path class="cls-9" d="M71.39,52.65a7.76,7.76,0,0,1-13.64-7.42Z"/><path class="cls-9" d="M81,52.65a7.76,7.76,0,1,0,13.64-7.42Z"/></g></svg>