<svg xmlns="http://www.w3.org/2000/svg" viewBox="0 0 170 288.64"><defs><style>.cls-1,.cls-11,.cls-12,.cls-13,.cls-3,.cls-8{fill:#fff;}.cls-1,.cls-11,.cls-12,.cls-2,.cls-3,.cls-4,.cls-6,.cls-8,.cls-9{stroke:#231f20;}.cls-1,.cls-10,.cls-11,.cls-4,.cls-5,.cls-6,.cls-7,.cls-8,.cls-9{stroke-linecap:round;}.cls-1,.cls-11{stroke-linejoin:round;}.cls-1,.cls-12{stroke-width:2px;}.cls-10,.cls-2,.cls-4,.cls-5,.cls-6,.cls-7,.cls-9{fill:none;}.cls-10,.cls-12,.cls-2,.cls-3,.cls-4,.cls-5,.cls-6,.cls-7,.cls-8,.cls-9{stroke-miterlimit:10;}.cls-11,.cls-2,.cls-3,.cls-7,.cls-8{stroke-width:4px;}.cls-4{stroke-width:16px;}.cls-10,.cls-5,.cls-7{stroke:#fff;}.cls-5{stroke-width:8px;}.cls-6{stroke-width:12px;}.cls-9{stroke-width:3px;}.cls-10{stroke-width:5px;}.cls-14{fill:#231f20;}</style></defs><title>sticker_Artboard 20</title><g id="Top_layer"><path class="cls-1" d="M26.39,134.15c.1,1-1.86,11-1.86,11h5.69l-1-11"/><polyline class="cls-2" points="53.15 91.07 27.98 111.5 27.98 132.78"/><path class="cls-3" d="M62.55,108.93,24.9,111.49a2.85,2.85,0,0,1-2.23-4.84L50.21,78.49a2.88,2.88,0,0,1,1.85-.85l37.65-2.57A2.86,2.86,0,0,1,92,79.92L64.4,108.08A2.88,2.88,0,0,1,62.55,108.93Z"/><path class="cls-4" d="M51.3,270.47s23.26-17.09,7.93-38.71"/><path class="cls-5" d="M51.3,270.47s23.26-17.09,7.93-38.71"/><rect class="cls-3" x="39.15" y="266.68" width="28" height="14.04" rx="7.02" ry="7.02" transform="translate(106.3 547.4) rotate(-180)"/><path class="cls-6" d="M101,198.38s20.39,31,39.46-2"/><path class="cls-7" d="M101,198.38s20.39,31,39.46-2"/><path class="cls-4" d="M86.59,271.78s18.25-22.36-2-39.45"/><path class="cls-5" d="M86.59,271.78s18.25-22.36-2-39.45"/><rect class="cls-8" x="50.35" y="185.16" width="50.04" height="54.89" rx="12" ry="12" transform="translate(150.75 425.2) rotate(-180)"/><path class="cls-3" d="M34.83,145.16a42.34,42.34,0,1,0,42.34-42.34A42.34,42.34,0,0,0,34.83,145.16Z"/><path class="cls-9" d="M92.19,152.23a4.39,4.39,0,0,0,8.77,0"/><path class="cls-6" d="M52.35,193.35s-32.08,5.58-2,29"/><path class="cls-10" d="M52.35,193.35s-32.08,5.58-2,29"/><circle class="cls-8" cx="140.42" cy="196.38" r="9.14"/><circle class="cls-8" cx="45.92" cy="223.18" r="9.14"/><rect class="cls-3" x="80.23" y="266.68" width="28" height="14.04" rx="7.02" ry="7.02" transform="translate(188.47 547.4) rotate(180)"/><circle class="cls-3" cx="79.99" cy="145.15" r="10.35"/><circle class="cls-3" cx="113.16" cy="145.15" r="10.35"/><path class="cls-3" d="M90.34,145.15s5.26-7.21,12.47,0"/><polyline class="cls-11" points="69.63 145.15 46.76 145.15 42.73 149.18"/><path class="cls-3" d="M88.68,104.4,41.71,122l-2.23-8.39A18.25,18.25,0,0,1,52.17,91.35l11.29-3.18a18.25,18.25,0,0,1,20.78,8.49Z"/><circle class="cls-12" cx="27.98" cy="131.31" r="3.49"/><path class="cls-13" d="M145.68,195.77a1.07,1.07,0,0,1-.25,0l-3.36-.89a1,1,0,0,1-.61-.46,1,1,0,0,1-.1-.76l17.82-66a1,1,0,0,1,.52-.64,1,1,0,0,1,.45-.1.94.94,0,0,1,.37.07l1.33.53a1,1,0,0,1,.6,1.16L146.65,195a1,1,0,0,1-.46.63A1,1,0,0,1,145.68,195.77Z"/><path class="cls-14" d="M160.15,127.89l1.32.53-15.79,66.35-3.35-.88,17.82-66m0-2a2,2,0,0,0-.89.21,2,2,0,0,0-1,1.27l-17.82,66a2,2,0,0,0,.2,1.52,2,2,0,0,0,1.22.93l3.35.88a1.79,1.79,0,0,0,.51.07,2.1,2.1,0,0,0,1-.28,2,2,0,0,0,.92-1.26l15.79-66.35a2,2,0,0,0-1.2-2.32l-1.33-.53a2.11,2.11,0,0,0-.74-.14Z"/><polygon class="cls-11" points="88.68 188.89 109.32 178.96 109.32 198.08 88.68 188.89"/><polygon class="cls-11" points="88.68 188.89 68.04 178.96 68.04 198.08 88.68 188.89"/><path class="cls-13" d="M88.68,195.34a6.45,6.45,0,1,1,6.45-6.45A6.45,6.45,0,0,1,88.68,195.34Z"/><path class="cls-14" d="M88.68,184.44a4.46,4.46,0,1,1-4.45,4.45,4.45,4.45,0,0,1,4.45-4.45m0-4a8.46,8.46,0,1,0,8.45,8.45,8.46,8.46,0,0,0-8.45-8.45Z"/><rect class="cls-14" x="103.98" y="122.02" width="18.59" height="7.24" rx="3.62" ry="3.62"/><rect class="cls-14" x="70.69" y="122.02" width="18.59" height="7.24" rx="3.62" ry="3.62"/></g></svg>