<svg xmlns="http://www.w3.org/2000/svg" viewBox="0 0 151.26 224.67"><defs><style>.cls-1,.cls-10,.cls-2,.cls-3,.cls-4,.cls-7{fill:none;}.cls-1,.cls-10,.cls-3,.cls-5,.cls-6,.cls-8{stroke:#231f20;}.cls-1,.cls-10,.cls-2,.cls-3,.cls-4,.cls-5,.cls-7,.cls-8{stroke-linecap:round;}.cls-1,.cls-10,.cls-2,.cls-3,.cls-4,.cls-5,.cls-6,.cls-7{stroke-miterlimit:10;}.cls-1{stroke-width:12px;}.cls-2,.cls-4,.cls-7{stroke:#fff;}.cls-2,.cls-5,.cls-6,.cls-8{stroke-width:4px;}.cls-3{stroke-width:16px;}.cls-4{stroke-width:8px;}.cls-5,.cls-6,.cls-8{fill:#fff;}.cls-7{stroke-width:5px;}.cls-8{stroke-linejoin:round;}.cls-9{fill:#231f20;}.cls-10{stroke-width:3px;}</style></defs><title>sticker_Artboard 35</title><g id="Top_layer"><path class="cls-1" d="M92.72,149.73s18.78,41.84,37.84,8.82"/><path class="cls-2" d="M92.72,149.73s18.78,41.84,37.84,8.82"/><path class="cls-3" d="M110.47,203.59s-8.73-27.51-34.12-19.92"/><path class="cls-4" d="M110.47,203.59s-8.73-27.51-34.12-19.92"/><rect class="cls-5" x="42.12" y="136.51" width="50.04" height="54.89" rx="12" ry="12" transform="translate(134.28 327.9) rotate(-180)"/><path class="cls-6" d="M26.59,96.5A42.34,42.34,0,1,0,68.93,54.16,42.34,42.34,0,0,0,26.59,96.5Z"/><path class="cls-1" d="M46.05,143.69s-11.72,36.86,37.89,17.82"/><path class="cls-7" d="M46.05,143.69s-11.72,36.86,37.89,17.82"/><rect class="cls-6" x="102.26" y="191.22" width="28" height="14.04" rx="7.02" ry="7.02" transform="translate(345.8 209.43) rotate(123.18)"/><path class="cls-8" d="M124.1,166.39l-7.4,9.75-39.79-9.75V127.71c12.59-1.65,28.43-.1,37.94,8.27,4.4-5.89,6.14-7.71,12.15-9.19Z"/><polygon class="cls-8" points="129.17 175.21 116.7 186.44 71.85 175.21 71.85 130.65 116.7 141.88 129.17 130.65 129.17 175.21"/><line class="cls-8" x1="116.44" y1="179.37" x2="116.44" y2="146.44"/><ellipse class="cls-5" cx="130.56" cy="157.83" rx="6.22" ry="9.14"/><circle class="cls-5" cx="76.35" cy="163.95" r="9.14"/><circle class="cls-9" cx="75.87" cy="102.25" r="3.89"/><circle class="cls-9" cx="102.21" cy="102.25" r="3.89"/><path class="cls-10" d="M85.67,108.28a4.38,4.38,0,1,0,8.76,0"/><path class="cls-3" d="M91.75,207.91S87.23,179.4,61,183.1"/><path class="cls-4" d="M91.75,207.91S87.23,179.4,61,183.1"/><rect class="cls-6" x="77.75" y="193.42" width="28" height="14.04" rx="7.02" ry="7.02" transform="translate(294.66 114.31) rotate(91.59)"/></g></svg>