<svg xmlns="http://www.w3.org/2000/svg" viewBox="0 0 187.5 230.5"><defs><style>.cls-1,.cls-11,.cls-12,.cls-13,.cls-3,.cls-8{fill:#fff;}.cls-1,.cls-11,.cls-12,.cls-2,.cls-3,.cls-4,.cls-6,.cls-8,.cls-9{stroke:#231f20;}.cls-1,.cls-10,.cls-11,.cls-4,.cls-5,.cls-6,.cls-7,.cls-8,.cls-9{stroke-linecap:round;}.cls-1,.cls-11{stroke-linejoin:round;}.cls-1,.cls-12{stroke-width:2px;}.cls-10,.cls-2,.cls-4,.cls-5,.cls-6,.cls-7,.cls-9{fill:none;}.cls-10,.cls-12,.cls-2,.cls-3,.cls-4,.cls-5,.cls-6,.cls-7,.cls-8,.cls-9{stroke-miterlimit:10;}.cls-11,.cls-2,.cls-3,.cls-7,.cls-8{stroke-width:4px;}.cls-4{stroke-width:16px;}.cls-10,.cls-5,.cls-7{stroke:#fff;}.cls-5{stroke-width:8px;}.cls-6{stroke-width:12px;}.cls-9{stroke-width:3px;}.cls-10{stroke-width:5px;}.cls-14{fill:#231f20;}</style></defs><title>sticker_Artboard 23</title><g id="Top_layer"><path class="cls-1" d="M159.39,74c-.1,1,1.86,11,1.86,11h-5.69l1-11"/><polyline class="cls-2" points="132.63 30.92 157.8 51.35 157.8 72.63"/><path class="cls-3" d="M123.23,48.78l37.65,2.56a2.85,2.85,0,0,0,2.23-4.84L135.57,18.34a2.83,2.83,0,0,0-1.85-.85L96.07,14.92a2.85,2.85,0,0,0-2.24,4.84l27.55,28.17A2.88,2.88,0,0,0,123.23,48.78Z"/><path class="cls-4" d="M134.48,210.31s-23.26-17.09-7.93-38.7"/><path class="cls-5" d="M134.48,210.31s-23.26-17.09-7.93-38.7"/><rect class="cls-3" x="118.63" y="206.53" width="28" height="14.04" rx="7.02" ry="7.02"/><path class="cls-6" d="M84.82,138.23s-20.39,31-39.46-2"/><path class="cls-7" d="M84.82,138.23s-20.39,31-39.46-2"/><path class="cls-4" d="M99.19,211.63s-18.25-22.36,2-39.46"/><path class="cls-5" d="M99.19,211.63s-18.25-22.36,2-39.46"/><rect class="cls-8" x="85.38" y="125.01" width="50.04" height="54.89" rx="12" ry="12"/><path class="cls-3" d="M151,85a42.34,42.34,0,1,1-42.34-42.34A42.34,42.34,0,0,1,151,85Z"/><path class="cls-9" d="M93.59,92.08a4.39,4.39,0,0,1-8.77,0"/><path class="cls-6" d="M133.43,133.19s32.08,5.58,2,29"/><path class="cls-10" d="M133.43,133.19s32.08,5.58,2,29"/><circle class="cls-8" cx="45.36" cy="136.22" r="9.14"/><circle class="cls-8" cx="139.86" cy="163.03" r="9.14"/><rect class="cls-3" x="77.54" y="206.53" width="28" height="14.04" rx="7.02" ry="7.02"/><circle class="cls-3" cx="105.79" cy="85" r="10.35"/><circle class="cls-3" cx="72.62" cy="85" r="10.35"/><path class="cls-3" d="M95.44,85S90.18,77.79,83,85"/><polyline class="cls-11" points="116.15 85 139.03 85 143.05 89.03"/><path class="cls-3" d="M97.1,44.25l47,17.61,2.23-8.38A18.24,18.24,0,0,0,133.62,31.2L122.32,28a18.25,18.25,0,0,0-20.78,8.49Z"/><circle class="cls-12" cx="157.8" cy="71.16" r="3.49"/><polygon class="cls-11" points="97.1 128.74 76.46 118.81 76.46 137.93 97.1 128.74"/><polygon class="cls-11" points="97.1 128.74 117.74 118.81 117.74 137.93 97.1 128.74"/><path class="cls-13" d="M97.1,135.19a6.45,6.45,0,1,1,6.45-6.45A6.45,6.45,0,0,1,97.1,135.19Z"/><path class="cls-14" d="M97.1,124.29a4.45,4.45,0,1,1-4.45,4.45,4.45,4.45,0,0,1,4.45-4.45m0-4a8.45,8.45,0,1,0,8.45,8.45,8.46,8.46,0,0,0-8.45-8.45Z"/><rect class="cls-14" x="63.21" y="61.86" width="18.59" height="7.24" rx="3.62" ry="3.62" transform="translate(145.01 130.96) rotate(180)"/><rect class="cls-14" x="96.5" y="61.86" width="18.59" height="7.24" rx="3.62" ry="3.62" transform="translate(211.59 130.96) rotate(-180)"/><path class="cls-13" d="M25.8,150.23a1,1,0,0,1-1-.75L14.38,110.34a1,1,0,0,1,.1-.76,1,1,0,0,1,.61-.46l22.28-6a.78.78,0,0,1,.26,0,1,1,0,0,1,1,.74L49.05,143a1.06,1.06,0,0,1-.1.76,1,1,0,0,1-.61.46l-22.28,5.95A.82.82,0,0,1,25.8,150.23Z"/><path class="cls-14" d="M37.63,104.13l10.45,39.15L25.8,149.23,15.34,110.08l22.29-6m0-2a1.86,1.86,0,0,0-.52.07l-22.28,6a2,2,0,0,0-1.22.93,2.07,2.07,0,0,0-.2,1.52l10.46,39.14a2,2,0,0,0,1.93,1.49,1.79,1.79,0,0,0,.51-.07l22.29-5.95A2,2,0,0,0,50,142.76L39.56,103.62a2,2,0,0,0-1.93-1.49Z"/><rect class="cls-13" x="21.58" y="110.56" width="20.46" height="32.96" transform="translate(-31.7 12.51) rotate(-14.95)"/><path class="cls-14" d="M37.09,109.09,45.33,140l-18.8,5-8.25-30.87,18.81-5m.71-1.23L17.06,113.4l8.76,32.81,20.74-5.54L37.8,107.86Z"/><path class="cls-13" d="M23.43,110.76a.24.24,0,0,1-.12,0,.28.28,0,0,1-.12-.16l-.2-.74a.24.24,0,0,1,.18-.3l7.4-2h.06a.24.24,0,0,1,.24.19l.2.74a.25.25,0,0,1,0,.19.27.27,0,0,1-.15.11l-7.41,2Z"/><path class="cls-14" d="M30.63,107.79l.2.74-7.4,2-.2-.74,7.4-2m0-.5-.13,0-7.4,2a.54.54,0,0,0-.3.24.5.5,0,0,0-.05.38l.2.74a.5.5,0,0,0,.48.37l.13,0,7.4-2a.49.49,0,0,0,.35-.61l-.19-.74a.51.51,0,0,0-.24-.3.43.43,0,0,0-.25-.07Z"/><path class="cls-13" d="M34.88,146.24a1,1,0,0,1-.85-1.48,1,1,0,0,1,.6-.46l3.34-.89a1.09,1.09,0,0,1,.26,0,1,1,0,0,1,.25,1.95l-3.34.89a1.15,1.15,0,0,1-.26,0Z"/><path class="cls-14" d="M38.23,143.62a.74.74,0,0,1,.71.55.73.73,0,0,1-.52.9l-3.35.9-.19,0a.74.74,0,0,1-.19-1.45l3.35-.89a.58.58,0,0,1,.19,0m0-.5a1.13,1.13,0,0,0-.32,0l-3.35.89a1.24,1.24,0,0,0,.32,2.43,1.12,1.12,0,0,0,.32,0l3.34-.89a1.27,1.27,0,0,0,.76-.58,1.24,1.24,0,0,0-1.07-1.86Z"/><path class="cls-13" d="M21.46,111.37a.73.73,0,0,1-.19-1.44l.19,0a.73.73,0,0,1,.19,1.43A.63.63,0,0,1,21.46,111.37Z"/><path class="cls-14" d="M21.46,110.16a.47.47,0,0,1,.46.35.48.48,0,0,1-.34.59l-.12,0a.48.48,0,0,1-.46-.36.47.47,0,0,1,.34-.58.25.25,0,0,1,.12,0m0-.5a1.07,1.07,0,0,0-.25,0,1,1,0,0,0-.6.46,1,1,0,0,0-.09.74,1,1,0,0,0,.94.73.69.69,0,0,0,.25,0,1,1,0,0,0,.7-1.19,1,1,0,0,0-.95-.73Z"/><path class="cls-11" d="M45.72,131.45c-7.15,2-6.84-6.48-3.82-6.87,9.6-1.23,12.6,8,12.6,11.64"/></g></svg>