<svg xmlns="http://www.w3.org/2000/svg" viewBox="0 0 179.33 179.17"><defs><style>.cls-1,.cls-10,.cls-4,.cls-7{fill:#fff;}.cls-1,.cls-10,.cls-2,.cls-4,.cls-5,.cls-7,.cls-8{stroke:#231f20;}.cls-1,.cls-10,.cls-2,.cls-3,.cls-5,.cls-6,.cls-7,.cls-8,.cls-9{stroke-linecap:round;}.cls-1,.cls-10,.cls-2,.cls-3,.cls-4,.cls-5,.cls-6,.cls-7,.cls-8,.cls-9{stroke-miterlimit:10;}.cls-1,.cls-8{stroke-width:3px;}.cls-2,.cls-3,.cls-5,.cls-6,.cls-8,.cls-9{fill:none;}.cls-2{stroke-width:16px;}.cls-3,.cls-6,.cls-9{stroke:#fff;}.cls-3{stroke-width:8px;}.cls-4,.cls-6,.cls-7{stroke-width:4px;}.cls-5{stroke-width:12px;}.cls-9{stroke-width:5px;}.cls-10{stroke-width:2px;}</style></defs><title>sticker_Artboard 37</title><g id="Top_layer"><path class="cls-1" d="M87.44,76.34l-30.13-34a5.62,5.62,0,0,1,2.6-9.12l17-5.1A18.55,18.55,0,0,1,99.73,39.61h0a18.59,18.59,0,0,1-1,14.72Z"/><path class="cls-1" d="M87.44,76.34,58.71,50.63a4.78,4.78,0,0,1,1.3-8l13.85-6"/><path class="cls-1" d="M87.48,76.36,61.7,56.66a4,4,0,0,1,.57-6.75L73.5,44"/><path class="cls-1" d="M87.81,75.85,65.23,61.12a3.33,3.33,0,0,1,0-5.62l8.94-5.6"/><path class="cls-1" d="M77.66,76.44l-41-19.61a5.63,5.63,0,0,1-1.16-9.42L49.2,36.08a18.54,18.54,0,0,1,25.48,1.75h0a18.51,18.51,0,0,1,4.83,13.93Z"/><path class="cls-1" d="M77.66,76.44,41.19,64a4.77,4.77,0,0,1-1.9-7.82L49.72,45.24"/><path class="cls-1" d="M77.71,76.45,46.29,68.34a4,4,0,0,1-2.1-6.43l8-9.82"/><path class="cls-1" d="M77.81,75.85,51.27,71.08a3.34,3.34,0,0,1-2.14-5.21l6.06-8.63"/><path class="cls-2" d="M25.14,122.46s31.64,16.8,24-11.65"/><path class="cls-3" d="M25.14,122.46s31.64,16.8,24-11.65"/><rect class="cls-4" x="4.98" y="120.14" width="28" height="14.04" rx="7.02" ry="7.02" transform="translate(-86.32 53.4) rotate(-46.5)"/><path class="cls-5" d="M98.72,106.83s5.91,36.65,36.83,14.32"/><path class="cls-6" d="M98.72,106.83s5.91,36.65,36.83,14.32"/><path class="cls-2" d="M51.72,151.64s23.6,1.55,18.07-20.85"/><path class="cls-3" d="M51.72,151.64s23.6,1.55,18.07-20.85"/><rect class="cls-7" x="52.04" y="79.27" width="50.04" height="54.89" rx="12" ry="12" transform="translate(56.09 236.65) rotate(-135)"/><path class="cls-4" d="M96.08,30.35a42.34,42.34,0,1,0,59.87,0A42.33,42.33,0,0,0,96.08,30.35Z"/><path class="cls-8" d="M140.4,58.3a4.38,4.38,0,1,0,8.76,0"/><path class="cls-8" d="M128.29,48.91a4.38,4.38,0,0,0,8.76,0"/><path class="cls-8" d="M150.37,48.91a4.39,4.39,0,0,0,8.77,0"/><path class="cls-5" d="M77.6,83.67S55.84,104.8,102.36,113.9"/><path class="cls-9" d="M77.6,83.67S55.84,104.8,102.36,113.9"/><circle class="cls-7" cx="135.55" cy="121.15" r="9.14"/><circle class="cls-7" cx="103.56" cy="114.75" r="9.14"/><rect class="cls-4" x="34.62" y="150.43" width="28" height="14.04" rx="7.02" ry="7.02" transform="translate(-116.15 154.67) rotate(-71.87)"/><path class="cls-7" d="M47.7,94s5.16-4.71,6.16.54,19.32,34.62,35.43,35.34c5.9,9.06-20.94,19.61-28.12,9.23S45.74,115.6,38,112.71,47.7,94,47.7,94Z"/><path class="cls-10" d="M83.68,132.75a28.13,28.13,0,0,1-24.91-15"/><path class="cls-10" d="M50.33,97.22s-6.2,12.34,4.1,23"/></g></svg>