<svg xmlns="http://www.w3.org/2000/svg" viewBox="0 0 144.03 229.33"><defs><style>.cls-1,.cls-11,.cls-12,.cls-2,.cls-4,.cls-5,.cls-7{fill:none;}.cls-1,.cls-11,.cls-12,.cls-3,.cls-4,.cls-6,.cls-8{stroke:#231f20;}.cls-1,.cls-11,.cls-12,.cls-2,.cls-4,.cls-5,.cls-6,.cls-7,.cls-8{stroke-linecap:round;}.cls-1,.cls-12,.cls-2,.cls-3,.cls-4,.cls-5,.cls-6,.cls-7{stroke-miterlimit:10;}.cls-1{stroke-width:16px;}.cls-2,.cls-5,.cls-7{stroke:#fff;}.cls-2{stroke-width:8px;}.cls-3,.cls-6,.cls-8,.cls-9{fill:#fff;}.cls-3,.cls-5,.cls-6{stroke-width:4px;}.cls-4{stroke-width:12px;}.cls-7{stroke-width:5px;}.cls-11,.cls-8{stroke-linejoin:round;stroke-width:3px;}.cls-10{fill:#231f20;}</style></defs><title>sticker_Artboard 32</title><g id="Top_layer"><path class="cls-1" d="M41,201.54s21-19.85,3.06-39.39"/><path class="cls-2" d="M41,201.54s21-19.85,3.06-39.39"/><rect class="cls-3" x="33.1" y="196.65" width="28" height="14.04" rx="7.02" ry="7.02" transform="translate(86.95 408.88) rotate(-177.97)"/><path class="cls-1" d="M75,201.54s21-19.85,3.06-39.39"/><path class="cls-2" d="M75,201.54s21-19.85,3.06-39.39"/><rect class="cls-3" x="67.13" y="196.65" width="28" height="14.04" rx="7.02" ry="7.02" transform="translate(154.99 410.09) rotate(-177.97)"/><path class="cls-4" d="M90.93,132.76s33.57,15.83,32.62-22.29"/><path class="cls-5" d="M90.93,132.76s33.57,15.83,32.62-22.29"/><rect class="cls-6" x="39.17" y="117.22" width="50.04" height="54.89" rx="12" ry="12" transform="translate(115.41 294.42) rotate(-174.95)"/><path class="cls-3" d="M29.74,73.91a42.34,42.34,0,1,0,45.9-38.44A42.34,42.34,0,0,0,29.74,73.91Z"/><path class="cls-3" d="M81.88,79.83a7.83,7.83,0,1,1-13-8.79Z"/><path class="cls-3" d="M99.74,81.41A7.84,7.84,0,0,0,114.05,75Z"/><path class="cls-4" d="M47.89,121.33s-25.61,24.58-34.14-26"/><path class="cls-7" d="M47.89,121.33s-25.61,24.58-34.14-26"/><circle class="cls-6" cx="123.55" cy="110.47" r="9.14"/><circle class="cls-6" cx="14.3" cy="92.91" r="9.14"/><polygon class="cls-8" points="97.84 118.32 78.29 116.59 80.48 84.36 101.52 86.22 97.84 118.32"/><path class="cls-9" d="M96.27,92.16a.5.5,0,0,1-.39-.26l-2.21-4.1-2.89,3.65a.51.51,0,0,1-.39.19h0a.46.46,0,0,1-.39-.26l-2.21-4.1-2.89,3.65a.51.51,0,0,1-.39.19h0a.49.49,0,0,1-.39-.26l-3.33-6.2a.49.49,0,0,1,0-.51.51.51,0,0,1,.42-.22l19.6,1.73a.51.51,0,0,1,.42.3.5.5,0,0,1-.07.5L96.71,92a.51.51,0,0,1-.39.19Z"/><path class="cls-10" d="M81.13,84.42l19.56,1.72-4.37,5.52-2.57-4.77-3.36,4.25-2.56-4.77-3.37,4.24-3.33-6.19m0-1a1,1,0,0,0-.83.45,1,1,0,0,0,0,1l3.33,6.2a1,1,0,0,0,.79.52h.09a1,1,0,0,0,.78-.38l2.42-3,1.85,3.43a1,1,0,0,0,.79.52h.09a1,1,0,0,0,.78-.38l2.42-3.06,1.85,3.43a1,1,0,0,0,.79.53h.09a1,1,0,0,0,.78-.38l4.37-5.51a1,1,0,0,0,.14-1,1,1,0,0,0-.83-.6L81.22,83.42Z"/><path class="cls-9" d="M78.65,117.12a.5.5,0,0,1-.36-.8l4.22-5.53a.5.5,0,0,1,.39-.2h0a.48.48,0,0,1,.4.27l2.08,4,2.76-3.63a.5.5,0,0,1,.4-.19h0a.5.5,0,0,1,.4.27l2.08,4,2.76-3.62a.51.51,0,0,1,.4-.2h0a.52.52,0,0,1,.4.27l3.16,6.18a.47.47,0,0,1,0,.51.49.49,0,0,1-.41.22Z"/><path class="cls-10" d="M82.9,111.09l2.44,4.76,3.25-4.25L91,116.36l3.24-4.26,3.17,6.18-18.75-1.65,4.21-5.54m0-1a1,1,0,0,0-.79.4L77.9,116a1,1,0,0,0-.12,1,1,1,0,0,0,.82.59l18.75,1.66h.09a1,1,0,0,0,.89-1.45l-3.17-6.19a1,1,0,0,0-.8-.54h-.09a1,1,0,0,0-.79.39l-2.29,3-1.71-3.35a1,1,0,0,0-.8-.54h-.09a1,1,0,0,0-.8.39l-2.28,3-1.72-3.35a1,1,0,0,0-.8-.54Z"/><polygon class="cls-11" points="97.84 118.32 78.29 116.59 80.48 84.36 101.52 86.22 97.84 118.32"/><polygon class="cls-10" points="85.12 83.44 57.33 69.95 62.68 58.92 87.8 77.92 85.12 83.44"/><polygon class="cls-10" points="97.38 84.52 123.48 77.14 120.15 65.34 95.71 78.63 97.38 84.52"/><path class="cls-12" d="M56.92,49.38a3.68,3.68,0,0,1,3.66,4.37"/><path class="cls-12" d="M61.76,43.56a3.69,3.69,0,0,1-4.38,3.66"/><path class="cls-12" d="M67.57,48.4A3.69,3.69,0,0,1,63.91,44"/><path class="cls-12" d="M62.74,54.22a3.68,3.68,0,0,1,4.37-3.67"/></g></svg>