<svg xmlns="http://www.w3.org/2000/svg" viewBox="0 0 110.22 284.15"><defs><style>.cls-1,.cls-10,.cls-2,.cls-4,.cls-5,.cls-8{fill:none;}.cls-1,.cls-10,.cls-3,.cls-4,.cls-6{stroke:#231f20;}.cls-1,.cls-10,.cls-2,.cls-4,.cls-5,.cls-6,.cls-8{stroke-linecap:round;}.cls-1,.cls-2,.cls-3,.cls-4,.cls-5,.cls-6,.cls-8{stroke-miterlimit:10;}.cls-1{stroke-width:16px;}.cls-2,.cls-5,.cls-8{stroke:#fff;}.cls-2{stroke-width:8px;}.cls-3,.cls-6,.cls-9{fill:#fff;}.cls-10,.cls-3,.cls-5,.cls-6{stroke-width:4px;}.cls-4{stroke-width:12px;}.cls-7{fill:#231f20;}.cls-8{stroke-width:5px;}.cls-10{stroke-linejoin:round;}</style></defs><title>sticker_Artboard 11</title><g id="Top_layer"><path class="cls-1" d="M28.2,266s23.26-17.09,7.92-38.7"/><path class="cls-2" d="M28.2,266s23.26-17.09,7.92-38.7"/><rect class="cls-3" x="16.04" y="262.2" width="28" height="14.04" rx="7.02" ry="7.02" transform="translate(60.09 538.44) rotate(-180)"/><path class="cls-4" d="M74.87,190s37,2.53,22.28-32.63"/><path class="cls-5" d="M74.87,190s37,2.53,22.28-32.63"/><path class="cls-1" d="M63.49,267.3s18.24-22.36-2-39.46"/><path class="cls-2" d="M63.49,267.3s18.24-22.36-2-39.46"/><rect class="cls-6" x="27.25" y="180.68" width="50.04" height="54.89" rx="12" ry="12" transform="translate(104.54 416.24) rotate(-180)"/><path class="cls-3" d="M11.72,140.68A42.34,42.34,0,1,0,54.06,98.34,42.34,42.34,0,0,0,11.72,140.68Z"/><circle class="cls-7" cx="59.29" cy="141.72" r="3.89"/><circle class="cls-7" cx="85.63" cy="141.72" r="3.89"/><ellipse class="cls-7" cx="72.72" cy="152.89" rx="3.4" ry="6.3"/><path class="cls-4" d="M29.25,188.86s-39.94-8.06-2.7-39.06"/><path class="cls-8" d="M29.25,188.86s-39.94-9.08-2.7-39.06"/><circle class="cls-6" cx="97.15" cy="157.39" r="9.14"/><circle class="cls-6" cx="30.05" cy="146.59" r="9.14"/><rect class="cls-3" x="57.13" y="262.2" width="28" height="14.04" rx="7.02" ry="7.02" transform="translate(142.26 538.44) rotate(180)"/><circle class="cls-6" cx="52.27" cy="77.58" r="6.74"/><path class="cls-7" d="M48.06,64.24,42.1,19a10.26,10.26,0,1,1,20.34-2.67,10.37,10.37,0,0,1,0,2.67L56.49,64.24a4.25,4.25,0,0,1-8.43,0Z"/><path class="cls-9" d="M51.38,64.24,46.27,19a6,6,0,1,1,12,0l-5.1,45.28a.9.9,0,0,1-1.79,0Z"/><path class="cls-10" d="M52.25,130.19a6.23,6.23,0,0,1,12.46,0"/><path class="cls-10" d="M79.39,130.19a6.24,6.24,0,0,1,12.47,0"/></g></svg>