<svg xmlns="http://www.w3.org/2000/svg" viewBox="0 0 99.22 288.64"><defs><style>.cls-1,.cls-2,.cls-3,.cls-4,.cls-7,.cls-8{fill:none;}.cls-1,.cls-3,.cls-5,.cls-6,.cls-7{stroke:#231f20;}.cls-1,.cls-2,.cls-3,.cls-4,.cls-5,.cls-7,.cls-8{stroke-linecap:round;}.cls-1,.cls-2,.cls-3,.cls-4,.cls-5,.cls-6,.cls-7,.cls-8{stroke-miterlimit:10;}.cls-1{stroke-width:12px;}.cls-2,.cls-4,.cls-8{stroke:#fff;}.cls-2,.cls-5,.cls-6{stroke-width:4px;}.cls-3{stroke-width:16px;}.cls-4{stroke-width:8px;}.cls-5,.cls-6{fill:#fff;}.cls-7{stroke-width:3px;}.cls-8{stroke-width:5px;}</style></defs><title>sticker_Artboard 15</title><g id="Top_layer"><path class="cls-1" d="M61,192.92s-1,18.16,10.45,31.14"/><path class="cls-2" d="M61,192.92s-1,18.16,10.45,31.14"/><path class="cls-3" d="M54.08,271.78s11.3-22.36-1.25-39.45"/><path class="cls-4" d="M54.08,271.78s11.3-22.36-1.25-39.45"/><path class="cls-3" d="M23.41,271.78S36,249.42,22,232.33"/><path class="cls-4" d="M23.41,271.78S36,249.42,22,232.33"/><circle class="cls-5" cx="73.86" cy="227.08" r="9.14"/><rect class="cls-5" x="15.6" y="185.16" width="50.04" height="54.89" rx="12" ry="12" transform="translate(81.25 425.2) rotate(-180)"/><path class="cls-6" d="M7.61,138.77A42.34,42.34,0,1,0,56.33,104,42.34,42.34,0,0,0,7.61,138.77Z"/><path class="cls-7" d="M68.27,177.05c1-6-.14-11.1-2.53-11.49s-5.12,4.1-6.12,10.05"/><path class="cls-1" d="M19.72,191.6s-9.95,15-4.92,39.24"/><path class="cls-8" d="M19.72,191.6s-9.95,15-4.92,39.24"/><circle class="cls-5" cx="13.99" cy="231.76" r="9.14"/><rect class="cls-6" x="45.48" y="266.68" width="28" height="14.04" rx="7.02" ry="7.02" transform="translate(118.96 547.4) rotate(180)"/><path class="cls-7" d="M75.41,161a4.38,4.38,0,0,0,8.64,1.44"/><path class="cls-7" d="M49.43,156.68a4.38,4.38,0,0,0,8.64,1.44"/><rect class="cls-6" x="13.47" y="266.68" width="28" height="14.04" rx="7.02" ry="7.02" transform="translate(54.94 547.4) rotate(-180)"/></g></svg>