<svg xmlns="http://www.w3.org/2000/svg" viewBox="0 0 144 196.67"><defs><style>.cls-1,.cls-10,.cls-2,.cls-4,.cls-5,.cls-7,.cls-8{fill:none;}.cls-1,.cls-10,.cls-3,.cls-4,.cls-6,.cls-7,.cls-9{stroke:#231f20;}.cls-1,.cls-10,.cls-2,.cls-3,.cls-4,.cls-5,.cls-7,.cls-8,.cls-9{stroke-linecap:round;}.cls-1,.cls-10,.cls-2,.cls-3,.cls-4,.cls-5,.cls-6,.cls-7,.cls-8{stroke-miterlimit:10;}.cls-1{stroke-width:12px;}.cls-2,.cls-5,.cls-8{stroke:#fff;}.cls-2,.cls-3,.cls-6{stroke-width:4px;}.cls-3,.cls-6,.cls-9{fill:#fff;}.cls-4{stroke-width:16px;}.cls-5{stroke-width:8px;}.cls-7{stroke-width:3px;}.cls-8{stroke-width:5px;}.cls-9{stroke-linejoin:round;stroke-width:2px;}</style></defs><title>sticker_Artboard 25</title><g id="Top_layer"><path class="cls-1" d="M94.53,94.74s37.11.4,20.38-33.86"/><path class="cls-2" d="M94.53,94.74s37.11.4,20.38-33.86"/><circle class="cls-3" cx="114.91" cy="60.88" r="9.14"/><path class="cls-4" d="M43.88,168.27s23.26-17.09,7.93-38.71"/><path class="cls-5" d="M43.88,168.27s23.26-17.09,7.93-38.71"/><rect class="cls-6" x="33.77" y="164.48" width="28" height="14.04" rx="7.02" ry="7.02" transform="translate(95.54 343.01) rotate(180)"/><path class="cls-4" d="M92.93,169s-16.72-18.78-8.65-38.52"/><path class="cls-5" d="M92.93,169s-16.72-18.78-8.65-38.52"/><rect class="cls-6" x="73.5" y="164.48" width="28" height="14.04" rx="7.02" ry="7.02"/><rect class="cls-3" x="42.93" y="82.97" width="50.04" height="54.89" rx="12" ry="12" transform="translate(135.91 220.82) rotate(-180)"/><path class="cls-6" d="M27.41,52.23A42.34,42.34,0,1,0,69.75,9.89,42.34,42.34,0,0,0,27.41,52.23Z"/><path class="cls-7" d="M90.76,77.82a4.39,4.39,0,0,0-8.77,0"/><path class="cls-1" d="M43.63,92.52s-32.48,2.34-9-27.66"/><path class="cls-8" d="M43.63,92.52s-32.48,2.34-9-27.66"/><circle class="cls-3" cx="33.55" cy="65.31" r="9.14"/><polyline class="cls-9" points="66.96 64.86 76.54 69.95 66.96 72.01"/><polyline class="cls-9" points="102.58 64.86 93 69.95 102.58 72.01"/><path class="cls-10" d="M99.91,136.63s-3,11.49,7,24.51"/><path class="cls-10" d="M104.18,137.67s-2.45,9.47,5.75,20.19"/><path class="cls-10" d="M26.55,161.14s14.59-9.32,10.08-22.26"/><path class="cls-10" d="M23.71,156.65s11.65-7.44,8.05-17.77"/><path class="cls-10" d="M97.79,104.67s38.52,2.59,31-36.24"/><path class="cls-10" d="M107.78,110s29.1-1.67,27.07-32.18"/><path class="cls-10" d="M16.91,68.43S-4.37,104.5,37.42,104.5"/><path class="cls-10" d="M8.74,72.75S-6,109.26,30.53,109.26"/></g></svg>