<svg xmlns="http://www.w3.org/2000/svg" viewBox="0 0 170.36 288.64"><defs><style>.cls-1,.cls-10,.cls-2{fill:#fff;}.cls-1,.cls-11,.cls-12,.cls-13,.cls-2,.cls-3,.cls-5,.cls-8{stroke:#231f20;}.cls-1,.cls-11,.cls-12,.cls-13,.cls-3,.cls-4,.cls-5,.cls-6,.cls-8,.cls-9{stroke-linecap:round;}.cls-1,.cls-12,.cls-13,.cls-2,.cls-3,.cls-4,.cls-5,.cls-6,.cls-8,.cls-9{stroke-miterlimit:10;}.cls-1,.cls-12,.cls-2,.cls-4{stroke-width:4px;}.cls-11,.cls-12,.cls-13,.cls-3,.cls-4,.cls-5,.cls-6,.cls-8,.cls-9{fill:none;}.cls-3{stroke-width:12px;}.cls-4,.cls-6,.cls-9{stroke:#fff;}.cls-5{stroke-width:16px;}.cls-6{stroke-width:8px;}.cls-7{fill:#231f20;}.cls-8{stroke-width:3px;}.cls-9{stroke-width:5px;}.cls-11{stroke-linejoin:round;stroke-width:2px;}</style></defs><title>sticker_Artboard 17</title><g id="Top_layer"><rect class="cls-1" x="67.65" y="228.13" width="9.36" height="39.83" rx="4.68" ry="4.68"/><rect class="cls-1" x="54.82" y="228.13" width="9.36" height="39.83" rx="4.68" ry="4.68"/><rect class="cls-1" x="23.87" y="228.13" width="9.36" height="39.83" rx="4.68" ry="4.68"/><rect class="cls-1" x="97.06" y="228.13" width="9.36" height="39.83" rx="4.68" ry="4.68"/><rect class="cls-2" x="23.87" y="216.13" width="56.59" height="12.91" rx="4.72" ry="4.72"/><rect class="cls-2" x="52.16" y="216.13" width="56.59" height="12.91" rx="4.72" ry="4.72"/><rect class="cls-1" x="15.69" y="125.37" width="66.56" height="88.7" rx="12" ry="12"/><rect class="cls-1" x="27.16" y="125.37" width="66.56" height="88.7" rx="12" ry="12"/><path class="cls-3" d="M92.31,171.3s1.45,30.38,31,21.44"/><path class="cls-4" d="M92.31,171.3s1.45,30.38,31,21.44"/><path class="cls-5" d="M93.07,234.11s16.24-20.66-9.79-25.29"/><path class="cls-6" d="M93.07,234.11s16.24-20.66-9.79-25.29"/><path class="cls-5" d="M64.71,234.11S81,213.45,54.92,208.82"/><path class="cls-6" d="M64.71,234.11S81,213.45,54.92,208.82"/><rect class="cls-1" x="45.52" y="162.49" width="50.04" height="54.89" rx="12" ry="12" transform="translate(141.08 379.86) rotate(-180)"/><path class="cls-2" d="M30,122.49A42.34,42.34,0,1,0,72.33,80.15,42.34,42.34,0,0,0,30,122.49Z"/><circle class="cls-7" cx="77.56" cy="136.72" r="3.89"/><circle class="cls-7" cx="103.89" cy="136.72" r="3.89"/><path class="cls-8" d="M87.35,142.75a4.39,4.39,0,1,0,8.77,0"/><path class="cls-3" d="M48.67,173.43s-21.85,14.7,15.16,18.83"/><path class="cls-9" d="M48.67,173.43s-21.85,14.7,15.16,18.83"/><path class="cls-1" d="M117.3,192c0,5.05,4.09,5,9.14,5s9.14.09,9.14-5a9.14,9.14,0,0,0-18.28,0Z"/><rect class="cls-2" x="84.6" y="232.45" width="28" height="14.04" rx="7.02" ry="7.02" transform="translate(97.57 498.45) rotate(-157.39)"/><path class="cls-10" d="M85.38,198a1,1,0,0,1-.66-.25l-6.67-5.86a1.27,1.27,0,0,1-.21-.25l-10-17.1a1,1,0,0,1,.36-1.37l4.64-2.69a1,1,0,0,1,.5-.14,1.15,1.15,0,0,1,.26,0,1,1,0,0,1,.6.47L84.4,188.23a.86.86,0,0,1,.11.28l1.84,8.23a1,1,0,0,1-.46,1.08A1,1,0,0,1,85.38,198Z"/><path class="cls-7" d="M73.38,171.3l10.15,17.43L85.38,197l-6.67-5.86-10-17.1,4.63-2.7m0-2a2.07,2.07,0,0,0-1,.27l-4.63,2.7A2,2,0,0,0,67,175L77,192.1a2,2,0,0,0,.41.5l6.67,5.86a2,2,0,0,0,2.34.22,2,2,0,0,0,.93-2.15l-1.84-8.24a2,2,0,0,0-.23-.57L75.11,170.29a2,2,0,0,0-1.73-1Z"/><line class="cls-11" x1="82.81" y1="194.7" x2="84.63" y2="193.64"/><line class="cls-11" x1="78.76" y1="191.14" x2="83.38" y2="188.46"/><circle class="cls-1" cx="71.45" cy="191.98" r="9.14"/><rect class="cls-2" x="52.3" y="236.08" width="28" height="14.04" rx="7.02" ry="7.02" transform="translate(-38.19 472.4) rotate(-140.24)"/><path class="cls-1" d="M165.33,207.27v63.88h-20v-50.6H68.75v50.6H8.44V207.27A11.25,11.25,0,0,1,19.69,196H154.08A11.25,11.25,0,0,1,165.33,207.27Z"/><path class="cls-1" d="M165.33,207.27v63.88h-20V227.74a7.19,7.19,0,0,0-7.2-7.19H75.94a7.19,7.19,0,0,0-7.19,7.19v43.41H46.47V207.27A11.25,11.25,0,0,1,57.72,196h96.36A11.25,11.25,0,0,1,165.33,207.27Z"/><rect class="cls-1" x="141.15" y="175.29" width="17.56" height="20.73" rx="3.33" ry="3.33"/><path class="cls-12" d="M160.3,178.92a3.94,3.94,0,0,1,3.93,3.93v5.61a3.93,3.93,0,0,1-3.93,3.92"/><path class="cls-13" d="M144.56,170.11a4,4,0,0,0,0-6.19c-3.32-3.38,0-8,0-8"/><path class="cls-13" d="M149.05,170.11a4,4,0,0,0,0-6.19c-3.32-3.38,0-8,0-8"/><path class="cls-13" d="M153.54,170.11a4,4,0,0,0,0-6.19c-3.32-3.38,0-8,0-8"/></g></svg>