<svg xmlns="http://www.w3.org/2000/svg" viewBox="0 0 110.04 288.64"><defs><style>.cls-1,.cls-2,.cls-4,.cls-5,.cls-9{fill:none;}.cls-1,.cls-3,.cls-4,.cls-6{stroke:#231f20;}.cls-1,.cls-2,.cls-4,.cls-5,.cls-6,.cls-9{stroke-linecap:round;}.cls-1,.cls-2,.cls-3,.cls-4,.cls-5,.cls-6,.cls-9{stroke-miterlimit:10;}.cls-1{stroke-width:16px;}.cls-2,.cls-5,.cls-9{stroke:#fff;}.cls-2{stroke-width:8px;}.cls-3,.cls-6,.cls-7{fill:#fff;}.cls-3,.cls-5,.cls-6{stroke-width:4px;}.cls-4{stroke-width:12px;}.cls-8{fill:#231f20;}.cls-9{stroke-width:5px;}</style></defs><title>sticker_Artboard 14</title><g id="Top_layer"><path class="cls-1" d="M23.78,269S47,252,31.7,230.33"/><path class="cls-2" d="M23.78,269S47,252,31.7,230.33"/><rect class="cls-3" x="11.62" y="265.25" width="28" height="14.04" rx="7.02" ry="7.02" transform="translate(51.24 544.55) rotate(-180)"/><path class="cls-4" d="M60.45,200.21S97.2,205.4,85,169.27"/><path class="cls-5" d="M60.45,200.21S97.2,205.4,85,169.27"/><path class="cls-1" d="M59.06,270.36s18.25-22.36-2-39.46"/><path class="cls-2" d="M59.06,270.36s18.25-22.36-2-39.46"/><rect class="cls-6" x="22.83" y="183.74" width="50.04" height="54.89" rx="12" ry="12" transform="translate(95.69 422.36) rotate(-180)"/><path class="cls-3" d="M7.3,143.73a42.34,42.34,0,1,0,42.34-42.34A42.34,42.34,0,0,0,7.3,143.73Z"/><circle class="cls-7" cx="54.86" cy="144.78" r="5.89"/><path class="cls-8" d="M54.86,140.88a3.9,3.9,0,1,1-3.89,3.9,3.91,3.91,0,0,1,3.89-3.9m0-4a7.9,7.9,0,1,0,7.9,7.9,7.91,7.91,0,0,0-7.9-7.9Z"/><circle class="cls-7" cx="81.2" cy="144.78" r="5.89"/><path class="cls-8" d="M81.2,140.88a3.9,3.9,0,1,1-3.89,3.9,3.9,3.9,0,0,1,3.89-3.9m0-4a7.9,7.9,0,1,0,7.89,7.9,7.91,7.91,0,0,0-7.89-7.9Z"/><path class="cls-4" d="M29,191.12s28.11,16.45,20.26-20.86"/><path class="cls-9" d="M29,191.12s28.11,16.45,20.26-20.86"/><circle class="cls-6" cx="85.02" cy="169.27" r="9.14"/><circle class="cls-6" cx="50.03" cy="171.16" r="9.14"/><rect class="cls-3" x="52.7" y="265.25" width="28" height="14.04" rx="7.02" ry="7.02" transform="translate(133.41 544.55) rotate(-180)"/><circle class="cls-8" cx="68.57" cy="155.95" r="5.57"/></g></svg>