<svg xmlns="http://www.w3.org/2000/svg" viewBox="0 0 285 236"><defs><style>.cls-1,.cls-12,.cls-13,.cls-2,.cls-4,.cls-5{fill:none;}.cls-1,.cls-10,.cls-11,.cls-12,.cls-3,.cls-4,.cls-6,.cls-8,.cls-9{stroke:#231f20;}.cls-1,.cls-10,.cls-11,.cls-12,.cls-13,.cls-2,.cls-4,.cls-5,.cls-6,.cls-8{stroke-linecap:round;}.cls-1,.cls-13,.cls-2,.cls-3,.cls-4,.cls-5,.cls-6,.cls-9{stroke-miterlimit:10;}.cls-1{stroke-width:16px;}.cls-13,.cls-2,.cls-5{stroke:#fff;}.cls-2{stroke-width:8px;}.cls-10,.cls-11,.cls-3,.cls-6,.cls-8,.cls-9{fill:#fff;}.cls-10,.cls-3,.cls-5,.cls-6{stroke-width:4px;}.cls-4{stroke-width:12px;}.cls-7{fill:#231f20;}.cls-10,.cls-11,.cls-12,.cls-8{stroke-linejoin:round;}.cls-8,.cls-9{stroke-width:2px;}.cls-13{stroke-width:5px;}</style></defs><title>sticker_Artboard 31</title><g id="Top_layer"><path class="cls-1" d="M82.83,213.71s17.36-25.17-2-44.33"/><path class="cls-2" d="M82.83,213.71s17.36-25.17-2-44.33"/><rect class="cls-3" x="75.15" y="210.82" width="26.75" height="13.41" rx="6.71" ry="6.71" transform="translate(177.58 434.82) rotate(179.86)"/><path class="cls-4" d="M115.14,131.28S163.4,122.46,152.72,82"/><path class="cls-5" d="M115.14,131.28S163.4,122.46,152.72,82"/><path class="cls-1" d="M114.81,213.44s15.5-26.35-5.23-44.06"/><path class="cls-2" d="M114.81,213.44s15.5-26.35-5.23-44.06"/><rect class="cls-6" x="71.03" y="123.53" width="47.8" height="52.42" rx="12" ry="12" transform="translate(206.83 287.26) rotate(173.24)"/><path class="cls-3" d="M48.89,90.33a40.44,40.44,0,1,0,35.4-44.92A40.44,40.44,0,0,0,48.89,90.33Z"/><circle class="cls-7" cx="94.93" cy="76.78" r="3.72"/><circle class="cls-7" cx="117.82" cy="72.14" r="3.72"/><circle class="cls-6" cx="152.72" cy="76.78" r="8.73"/><rect class="cls-3" x="107.39" y="210.13" width="26.75" height="13.41" rx="6.71" ry="6.71" transform="translate(257.4 424.04) rotate(175.71)"/><path class="cls-8" d="M121.87,78.63a7.32,7.32,0,1,1,3.64,13.45"/><ellipse class="cls-3" cx="119.23" cy="85.71" rx="4.56" ry="7.1" transform="translate(-9.26 14.63) rotate(-6.76)"/><path class="cls-3" d="M195,77a46,46,0,0,0,4,14.53C170.15,83,121.86,89.5,121.86,89.5,118.65,85.42,121,82,121,82s48.48-5,74.55-20.05A45.36,45.36,0,0,0,195,77Z"/><path class="cls-3" d="M214.13,74.78c1.5,12.67-1.56,23.45-6.84,24.07-2.93.35-5.93-2.5-8.27-7.27h0A46,46,0,0,1,195,77,45.36,45.36,0,0,1,195.52,62h0c1.16-5.18,3.41-8.66,6.34-9C207.14,52.35,212.63,62.11,214.13,74.78Z"/><path class="cls-9" d="M210,75.27c1.17,9.83-.17,18.07-3,18.4-1.56.19-3.26-2.1-4.64-5.85h0a50,50,0,0,1-2.57-11.33,50.24,50.24,0,0,1-.16-11.62h0c.48-4,1.59-6.59,3.15-6.77C205.59,57.74,208.82,65.44,210,75.27Z"/><path class="cls-8" d="M102.56,82.21a8.14,8.14,0,1,1,6.85,13.91"/><path class="cls-6" d="M144.56,74.18c.54,3.39,4.27,5.62,8.34,5s6.92-3.93,6.38-7.33"/><path class="cls-10" d="M47.12,52.78l1.43-17.31A12.33,12.33,0,0,1,65.63,25.11l63.15,26.65a2.51,2.51,0,0,1-1,4.82L49.58,55.49A2.51,2.51,0,0,1,47.12,52.78Z"/><path class="cls-10" d="M117.45,53.59c-.35,4.47-13.35,7.89-32.33,10.14s-35.32-4-36.5-14,13.24-19.9,32.22-22.15S118.23,43.57,117.45,53.59Z"/><path class="cls-10" d="M62.24,39.89s-8,12.37-26.38-3.75c-4.81-4.22-17.15-14.43-27.19-20C8.67,16.13,52.6,8.82,62.24,39.89Z"/><line class="cls-11" x1="62.24" y1="39.89" x2="29.12" y2="21.33"/><polyline class="cls-12" points="31.91 27.45 38.12 26.37 35.77 20.39"/><polyline class="cls-12" points="39.91 31.82 46.12 30.74 43.77 24.75"/><polyline class="cls-12" points="46.99 36.04 53.2 34.96 50.85 28.97"/><path class="cls-10" d="M38.34,65.81l.57-14.43a12.33,12.33,0,0,1,14.4-11.67L128,52.46a2.51,2.51,0,0,1,.07,4.93l-80.77,16A7.47,7.47,0,0,1,38.34,65.81Z"/><path class="cls-4" d="M85.12,130.29s54.3,18.54,51.32-35.49"/><path class="cls-13" d="M85.12,130.29s54.3,18.54,51.32-35.49"/><circle class="cls-6" cx="136.56" cy="84.18" r="8.73"/><line class="cls-10" x1="235.44" y1="67.57" x2="272.69" y2="64.81"/><line class="cls-10" x1="233.08" y1="59.55" x2="266.56" y2="43"/><line class="cls-10" x1="234.66" y1="75.72" x2="270.31" y2="86.87"/></g></svg>