<svg xmlns="http://www.w3.org/2000/svg" viewBox="0 0 108.05 155.42"><defs><style>.cls-1,.cls-2,.cls-3,.cls-4,.cls-7,.cls-9{fill:none;}.cls-1,.cls-3,.cls-5,.cls-6,.cls-9{stroke:#231f20;}.cls-1,.cls-2,.cls-3,.cls-4,.cls-5,.cls-7,.cls-9{stroke-linecap:round;}.cls-1,.cls-2,.cls-3,.cls-4,.cls-5,.cls-6,.cls-7,.cls-9{stroke-miterlimit:10;}.cls-1{stroke-width:12px;}.cls-2,.cls-4,.cls-7{stroke:#fff;}.cls-2,.cls-5,.cls-6{stroke-width:4px;}.cls-3{stroke-width:16px;}.cls-4{stroke-width:8px;}.cls-10,.cls-5,.cls-6{fill:#fff;}.cls-7{stroke-width:5px;}.cls-8{fill:#231f20;}.cls-9{stroke-width:3px;}</style></defs><title>sticker_Artboard 36</title><g id="Top_layer"><path class="cls-1" d="M47.86,89.27S19.92,84.7,28.61,112.45"/><path class="cls-2" d="M47.86,89.27S19.92,84.7,28.61,112.45"/><path class="cls-3" d="M23.9,128.78s9.29-20,27.76-11.72"/><path class="cls-4" d="M23.9,128.78s9.29-20,27.76-11.72"/><rect class="cls-5" x="38.23" y="82.16" width="38.16" height="41.85" rx="9.15" ry="9.15" transform="translate(-1.69 0.96) rotate(-0.94)"/><path class="cls-6" d="M86.62,56.55A34.54,34.54,0,1,1,57.35,17.44,34.55,34.55,0,0,1,86.62,56.55Z"/><path class="cls-1" d="M73.36,88.05s17.61,14.33-7.3,29.33"/><path class="cls-7" d="M73.36,88.05s17.61,14.33-7.3,29.33"/><circle class="cls-5" cx="28.61" cy="112.45" r="6.97"/><circle class="cls-5" cx="64.28" cy="115.27" r="6.97"/><rect class="cls-6" x="9.37" y="118.82" width="21.35" height="10.71" rx="5.35" ry="5.35" transform="translate(123.1 52.04) rotate(64.18)"/><path class="cls-3" d="M54.08,129.06s4.33-10,13.59-6.18"/><path class="cls-4" d="M54.08,129.06s4.33-10,13.59-6.18"/><rect class="cls-6" x="39.64" y="121.01" width="21.35" height="10.71" rx="5.35" ry="5.35" transform="translate(162.25 49.09) rotate(77.09)"/><circle class="cls-8" cx="26.38" cy="45.62" r="4.74"/><circle class="cls-8" cx="54.41" cy="45.62" r="4.74"/><path class="cls-9" d="M36,51.65a4.39,4.39,0,0,0,8.77,0"/><circle class="cls-10" cx="30.55" cy="42.98" r="2.11"/><circle class="cls-10" cx="58.29" cy="42.98" r="2.11"/></g></svg>