<svg xmlns="http://www.w3.org/2000/svg" viewBox="0 0 206.82 288.64"><defs><style>.cls-1,.cls-2,.cls-4,.cls-8{fill:#fff;}.cls-1,.cls-11,.cls-13,.cls-4,.cls-5,.cls-6,.cls-8,.cls-9{stroke:#231f20;}.cls-1,.cls-10,.cls-11,.cls-12,.cls-13,.cls-4,.cls-5,.cls-6,.cls-7,.cls-9{stroke-linecap:round;}.cls-1,.cls-10,.cls-11,.cls-12,.cls-13,.cls-6,.cls-7,.cls-8,.cls-9{stroke-miterlimit:10;}.cls-1,.cls-10,.cls-5,.cls-8{stroke-width:4px;}.cls-3{fill:#231f20;}.cls-4,.cls-5{stroke-linejoin:round;}.cls-10,.cls-11,.cls-12,.cls-13,.cls-5,.cls-6,.cls-7,.cls-9{fill:none;}.cls-6{stroke-width:16px;}.cls-10,.cls-12,.cls-7{stroke:#fff;}.cls-7{stroke-width:8px;}.cls-9{stroke-width:12px;}.cls-11{stroke-width:3px;}.cls-12{stroke-width:5px;}</style></defs><title>sticker_Artboard 18</title><g id="Top_layer"><path class="cls-1" d="M56.9,216.21c0,3-9.77,5.39-21.83,5.39s-21.83-2.41-21.83-5.39,9.78-5.4,21.83-5.4S56.9,213.23,56.9,216.21Z"/><path class="cls-2" d="M35.08,218.38c-10.77,0-16.7-1.41-17-2.2.29-.74,6.22-2.15,17-2.15s16.7,1.41,17,2.2C51.78,217,45.85,218.38,35.08,218.38Z"/><path class="cls-3" d="M35.08,214.53c9,0,14.39,1,16.07,1.67-1.68.71-7,1.68-16.07,1.68s-14.39-1-16.07-1.68c1.68-.7,7-1.67,16.07-1.67m0-1c-9.66,0-17.49,1.2-17.49,2.67s7.83,2.68,17.49,2.68,17.49-1.2,17.49-2.68-7.83-2.67-17.49-2.67Z"/><path class="cls-1" d="M56.9,216.21v33.48c0,3-9.77,5.39-21.83,5.39s-21.83-2.41-21.83-5.39V216.21c0,1.09,1.32,2.11,3.58,3a33.14,33.14,0,0,0,5.69,1.45c1.52.26,3.19.48,5,.64,2.38.22,4.93.34,7.6.34,1.09,0,2.15,0,3.2-.06C48.81,221.16,56.9,218.92,56.9,216.21Z"/><path class="cls-4" d="M16.82,220.17a33.14,33.14,0,0,0,5.69,1.45,2.72,2.72,0,0,0-.33,1.23v6.88a2.68,2.68,0,0,1-5.36,0Z"/><path class="cls-4" d="M38.27,222.54v14.51a2.68,2.68,0,1,1-5.36,0V225.39a2.68,2.68,0,1,1-5.36,0v-2.54a2.8,2.8,0,0,0-.08-.59c2.38.22,4.93.34,7.6.34C36.16,222.6,37.22,222.58,38.27,222.54Z"/><path class="cls-5" d="M56.33,214.93V211.7a21.48,21.48,0,0,0-21.42-21.42h0A21.48,21.48,0,0,0,13.49,211.7v3.23"/><path class="cls-6" d="M70.29,252.51s23.25-17.09,7.92-38.71"/><path class="cls-7" d="M70.29,252.51s23.25-17.09,7.92-38.71"/><rect class="cls-8" x="58.13" y="248.72" width="28" height="14.04" rx="7.02" ry="7.02" transform="translate(144.26 511.48) rotate(-180)"/><path class="cls-9" d="M117.94,181.38s20.4,45.68,39.46-3"/><path class="cls-10" d="M117.94,181.38s20.4,45.68,39.46-3"/><path class="cls-6" d="M105.57,253.83s18.25-22.37-2-39.46"/><path class="cls-7" d="M105.57,253.83s18.25-22.37-2-39.46"/><rect class="cls-1" x="69.34" y="167.2" width="50.04" height="54.89" rx="12" ry="12" transform="translate(188.72 389.29) rotate(-180)"/><path class="cls-8" d="M53.81,127.2A42.34,42.34,0,1,0,96.15,84.86,42.34,42.34,0,0,0,53.81,127.2Z"/><circle class="cls-3" cx="101.38" cy="128.24" r="3.89"/><circle class="cls-3" cx="127.71" cy="128.24" r="3.89"/><path class="cls-11" d="M111.17,134.27a4.39,4.39,0,1,0,8.77,0"/><path class="cls-9" d="M71.34,175.39s-43.55-19.18-36.26,18.24"/><path class="cls-12" d="M71.34,175.39s-43.55-19.18-36.26,18.24"/><circle class="cls-1" cx="35.08" cy="194.64" r="9.14"/><rect class="cls-8" x="99.22" y="248.72" width="28" height="14.04" rx="7.02" ry="7.02" transform="translate(226.43 511.48) rotate(180)"/><path class="cls-1" d="M167.63,163.31l-4.37,21.14a3,3,0,0,1-3.54,2.33l-2.51-.52a3,3,0,0,1-2.33-3.55l4.36-21.13Z"/><rect class="cls-1" x="158.86" y="141.32" width="12.25" height="30.38" rx="5.04" ry="5.04" transform="translate(-21.65 286.44) rotate(-78.33)"/><path class="cls-1" d="M186,130.08l-5.88,28.44a5.05,5.05,0,0,0-3.91-6l-19.88-4.11a5.06,5.06,0,0,0-6,3.92l5.87-28.44Z"/><line class="cls-13" x1="160.14" y1="125.38" x2="156.66" y2="142.23"/><line class="cls-13" x1="163.12" y1="125.99" x2="159.64" y2="142.85"/><line class="cls-13" x1="166.1" y1="126.61" x2="162.62" y2="143.47"/><line class="cls-13" x1="169.09" y1="127.23" x2="165.61" y2="144.08"/><line class="cls-13" x1="172.07" y1="127.84" x2="168.59" y2="144.7"/><line class="cls-13" x1="175.05" y1="128.46" x2="171.57" y2="145.31"/><line class="cls-13" x1="178.03" y1="129.07" x2="174.55" y2="145.93"/><line class="cls-13" x1="181.02" y1="129.69" x2="177.54" y2="146.55"/><circle class="cls-1" cx="159.4" cy="178.42" r="9.14"/></g></svg>