<svg xmlns="http://www.w3.org/2000/svg" viewBox="0 0 129.33 196.67"><defs><style>.cls-1,.cls-2,.cls-3,.cls-4,.cls-8,.cls-9{fill:none;}.cls-1,.cls-3,.cls-5,.cls-6,.cls-9{stroke:#231f20;}.cls-1,.cls-2,.cls-3,.cls-4,.cls-6,.cls-8,.cls-9{stroke-linecap:round;}.cls-1,.cls-2,.cls-3,.cls-4,.cls-5,.cls-6,.cls-8{stroke-miterlimit:10;}.cls-1{stroke-width:12px;}.cls-2,.cls-4,.cls-8{stroke:#fff;}.cls-2,.cls-5,.cls-6,.cls-9{stroke-width:4px;}.cls-3{stroke-width:16px;}.cls-4{stroke-width:8px;}.cls-5,.cls-6{fill:#fff;}.cls-7{fill:#231f20;}.cls-8{stroke-width:5px;}.cls-9{stroke-linejoin:round;}</style></defs><title>sticker_Artboard 26</title><g id="Top_layer"><path class="cls-1" d="M64.15,108.78S100.56,116,90.37,79.23"/><path class="cls-2" d="M64.15,108.78S100.56,116,90.37,79.23"/><path class="cls-3" d="M41.09,178.87s10.33-22.09,0-39.47"/><path class="cls-4" d="M41.09,178.87s10.33-22.09,0-39.47"/><rect class="cls-5" x="29.39" y="173.76" width="28" height="14.04" rx="7.02" ry="7.02" transform="translate(86.78 361.55) rotate(-180)"/><path class="cls-3" d="M72.49,178.87s10.33-22.09,0-39.47"/><path class="cls-4" d="M72.49,178.87s10.33-22.09,0-39.47"/><rect class="cls-5" x="65.6" y="173.76" width="28" height="14.04" rx="7.02" ry="7.02" transform="translate(159.2 361.55) rotate(-180)"/><rect class="cls-6" x="32.11" y="92.24" width="50.04" height="54.89" rx="12" ry="12" transform="translate(114.26 239.36) rotate(-180)"/><path class="cls-5" d="M16.58,52.23A42.34,42.34,0,1,0,58.92,9.89,42.34,42.34,0,0,0,16.58,52.23Z"/><circle class="cls-7" cx="64.15" cy="53.28" r="3.89"/><circle class="cls-7" cx="90.48" cy="53.28" r="3.89"/><path class="cls-1" d="M38.05,99.74S69.24,131.92,73.58,80"/><path class="cls-8" d="M38.05,99.74S70.13,131.34,73.58,80"/><circle class="cls-6" cx="74.05" cy="73.58" r="9.14"/><circle class="cls-6" cx="87.97" cy="76.5" r="9.14"/><path class="cls-9" d="M57.13,41.33s14.14,2.88,14.14-5.12"/><path class="cls-9" d="M97.55,41.33s-14.14,2.88-14.14-5.12"/></g></svg>