<svg xmlns="http://www.w3.org/2000/svg" viewBox="0 0 140 196.67"><defs><style>.cls-1,.cls-2,.cls-4,.cls-5,.cls-7,.cls-8{fill:none;}.cls-1,.cls-3,.cls-4,.cls-6,.cls-7{stroke:#231f20;}.cls-1,.cls-2,.cls-4,.cls-5,.cls-6,.cls-7,.cls-8{stroke-linecap:round;}.cls-1,.cls-2,.cls-3,.cls-4,.cls-5,.cls-6,.cls-7,.cls-8{stroke-miterlimit:10;}.cls-1{stroke-width:16px;}.cls-2,.cls-5,.cls-8{stroke:#fff;}.cls-2{stroke-width:8px;}.cls-3,.cls-6{fill:#fff;}.cls-3,.cls-5,.cls-6{stroke-width:4px;}.cls-4{stroke-width:12px;}.cls-7{stroke-width:3px;}.cls-8{stroke-width:5px;}</style></defs><title>sticker_Artboard 27</title><g id="Top_layer"><path class="cls-1" d="M41.07,159.5s21.44,11.86,13.4-12.74"/><path class="cls-2" d="M41.07,159.5s21.44,11.86,13.4-12.74"/><rect class="cls-3" x="19.56" y="157.89" width="28" height="14.04" rx="7.02" ry="7.02" transform="translate(-122.75 102.56) rotate(-56.75)"/><path class="cls-4" d="M93.56,106.05s23-2.13,29.37-23.72"/><path class="cls-5" d="M93.56,106.05s23-2.13,29.37-23.72"/><path class="cls-1" d="M102.24,154.67S114,133.2,89.45,141.31"/><path class="cls-2" d="M102.24,154.67S114,133.2,89.45,141.31"/><rect class="cls-6" x="44.52" y="94.22" width="50.04" height="54.89" rx="12" ry="12" transform="translate(139.08 243.32) rotate(-180)"/><path class="cls-3" d="M29,54.22A42.34,42.34,0,1,0,71.33,11.88,42.34,42.34,0,0,0,29,54.22Z"/><path class="cls-7" d="M86.35,61.29a4.39,4.39,0,0,0,8.77,0"/><path class="cls-7" d="M80.94,50.6a4.39,4.39,0,1,0-8.77,0"/><path class="cls-7" d="M107.27,50.6a4.38,4.38,0,1,0-8.76,0"/><path class="cls-4" d="M48.77,107.56s-13.07-2.37-25-22.17"/><path class="cls-8" d="M48.77,107.56s-13.07-2.37-25-22.17"/><circle class="cls-6" cx="125.44" cy="74.81" r="9.14"/><circle class="cls-6" cx="18.52" cy="76.81" r="9.14"/><rect class="cls-3" x="94.56" y="150.37" width="28" height="14.04" rx="7.02" ry="7.02" transform="translate(245.05 291.31) rotate(169.05)"/></g></svg>