<svg xmlns="http://www.w3.org/2000/svg" viewBox="0 0 136.3 285.77"><defs><style>.cls-1,.cls-2,.cls-4,.cls-5,.cls-8,.cls-9{fill:none;}.cls-1,.cls-3,.cls-4,.cls-6,.cls-8{stroke:#231f20;}.cls-1,.cls-2,.cls-4,.cls-5,.cls-6,.cls-8,.cls-9{stroke-linecap:round;}.cls-1,.cls-2,.cls-3,.cls-4,.cls-5,.cls-6,.cls-8,.cls-9{stroke-miterlimit:10;}.cls-1{stroke-width:16px;}.cls-2,.cls-5,.cls-9{stroke:#fff;}.cls-2{stroke-width:8px;}.cls-3,.cls-6{fill:#fff;}.cls-3,.cls-5,.cls-6{stroke-width:4px;}.cls-4{stroke-width:12px;}.cls-7{fill:#231f20;}.cls-8{stroke-width:3px;}.cls-9{stroke-width:5px;}</style></defs><title>sticker_Artboard 12</title><g id="Top_layer"><path class="cls-1" d="M33.52,267.6s23.26-17.09,7.93-38.71"/><path class="cls-2" d="M33.52,267.6s23.26-17.09,7.93-38.71"/><rect class="cls-3" x="21.37" y="263.81" width="28" height="14.04" rx="7.02" ry="7.02" transform="translate(70.74 541.67) rotate(-180)"/><path class="cls-4" d="M83.18,195.52s20.39,31,39.46-2"/><path class="cls-5" d="M83.18,195.52s20.39,31,39.46-2"/><path class="cls-1" d="M68.81,268.92s18.25-22.36-2-39.46"/><path class="cls-2" d="M68.81,268.92s18.25-22.36-2-39.46"/><rect class="cls-6" x="32.57" y="182.29" width="50.04" height="54.89" rx="12" ry="12" transform="translate(115.19 419.47) rotate(-180)"/><path class="cls-3" d="M17.05,142.29A42.34,42.34,0,1,0,59.39,100,42.34,42.34,0,0,0,17.05,142.29Z"/><circle class="cls-7" cx="64.61" cy="143.34" r="3.89"/><circle class="cls-7" cx="90.95" cy="143.34" r="3.89"/><path class="cls-8" d="M74.41,149.37a4.39,4.39,0,0,0,8.77,0"/><path class="cls-4" d="M34.57,190.48s-31,9.94,2,29"/><path class="cls-9" d="M34.57,190.48s-31,9.94,2,29"/><circle class="cls-6" cx="122.64" cy="193.51" r="9.14"/><circle class="cls-6" cx="35.37" cy="219.48" r="9.14"/><rect class="cls-3" x="62.45" y="263.81" width="28" height="14.04" rx="7.02" ry="7.02" transform="translate(152.91 541.67) rotate(180)"/></g></svg>