<svg xmlns="http://www.w3.org/2000/svg" viewBox="0 0 141.8 288.64"><defs><style>.cls-1,.cls-10,.cls-2,.cls-3,.cls-4,.cls-7,.cls-8,.cls-9{fill:none;}.cls-1,.cls-10,.cls-3,.cls-5,.cls-6,.cls-7,.cls-8{stroke:#231f20;}.cls-1,.cls-10,.cls-2,.cls-3,.cls-4,.cls-5,.cls-7,.cls-8,.cls-9{stroke-linecap:round;}.cls-1,.cls-10,.cls-2,.cls-3,.cls-4,.cls-5,.cls-6,.cls-8,.cls-9{stroke-miterlimit:10;}.cls-1{stroke-width:16px;}.cls-2,.cls-4,.cls-9{stroke:#fff;}.cls-2{stroke-width:8px;}.cls-3{stroke-width:12px;}.cls-4,.cls-5,.cls-6{stroke-width:4px;}.cls-5,.cls-6{fill:#fff;}.cls-7{stroke-linejoin:round;stroke-width:2px;}.cls-8{stroke-width:3px;}.cls-9{stroke-width:5px;}</style></defs><title>sticker_Artboard 19</title><g id="Top_layer"><path class="cls-1" d="M50,271.78s9.35-22.36-1-39.45"/><path class="cls-2" d="M50,271.78s9.35-22.36-1-39.45"/><path class="cls-3" d="M88.45,192.45s41.1-10.48,21.26-38.12"/><path class="cls-4" d="M88.45,192.45s41.1-10.48,21.26-38.12"/><path class="cls-1" d="M78,271.78s9.35-22.36-1-39.45"/><path class="cls-2" d="M78,271.78s9.35-22.36-1-39.45"/><rect class="cls-5" x="41.47" y="185.16" width="50.04" height="54.89" rx="12" ry="12" transform="translate(132.98 425.2) rotate(-180)"/><path class="cls-6" d="M17.9,153.67a42.33,42.33,0,1,0,34.23-49.12A42.34,42.34,0,0,0,17.9,153.67Z"/><path class="cls-7" d="M89.45,165.47c-1.9-10.63-5.32-18.91-7.63-18.5s-2.66,9.37-.76,20Z"/><line class="cls-8" x1="74.35" y1="145.81" x2="65.72" y2="147.35"/><line class="cls-8" x1="96.63" y1="141.83" x2="88.01" y2="143.37"/><path class="cls-3" d="M45,196.1s-37.16-1,6.18-37.58"/><path class="cls-9" d="M45,196.1s-37.16-1,6.18-37.58"/><circle class="cls-5" cx="55.1" cy="156.96" r="9.14"/><rect class="cls-6" x="71.35" y="266.68" width="28" height="14.04" rx="7.02" ry="7.02" transform="translate(170.7 547.4) rotate(180)"/><rect class="cls-6" x="41.01" y="266.68" width="23.62" height="14.04" rx="7.02" ry="7.02" transform="translate(105.63 547.4) rotate(-180)"/><path class="cls-8" d="M61.6,141.33s9.71-2,10.28-9.36"/><path class="cls-8" d="M98.31,134.77s-9.71,1.48-12.78-5.24"/><path class="cls-10" d="M65.74,148.54s4,5.7,2.16,12.1a13.86,13.86,0,0,0,2,11.41s5.08,7.15,2.65,14.86"/><path class="cls-10" d="M74.37,147s4,5.7,2.16,12.1a13.86,13.86,0,0,0,2,11.41,20.14,20.14,0,0,1,3.31,10.62"/><path class="cls-10" d="M88,144.56s4,5.7,2.17,12.1a13.88,13.88,0,0,0,2,11.41A19.1,19.1,0,0,1,94,171.33"/><path class="cls-10" d="M96.65,143s4,5.7,2.17,12.1a13.13,13.13,0,0,0,.22,7.75"/><circle class="cls-5" cx="108.43" cy="147.82" r="9.14"/></g></svg>