<svg xmlns="http://www.w3.org/2000/svg" viewBox="0 0 142 229.33"><defs><style>.cls-1,.cls-4,.cls-7{fill:#fff;}.cls-1,.cls-11,.cls-12,.cls-2,.cls-4,.cls-5,.cls-7,.cls-9{stroke:#231f20;}.cls-1,.cls-10,.cls-11,.cls-2,.cls-3,.cls-5,.cls-6,.cls-7,.cls-9{stroke-linecap:round;}.cls-1,.cls-11{stroke-linejoin:round;}.cls-1,.cls-11,.cls-12,.cls-4,.cls-6,.cls-7{stroke-width:4px;}.cls-10,.cls-12,.cls-2,.cls-3,.cls-5,.cls-6,.cls-9{fill:none;}.cls-10,.cls-12,.cls-2,.cls-3,.cls-4,.cls-5,.cls-6,.cls-7,.cls-9{stroke-miterlimit:10;}.cls-2{stroke-width:16px;}.cls-10,.cls-3,.cls-6{stroke:#fff;}.cls-3{stroke-width:8px;}.cls-5{stroke-width:12px;}.cls-11,.cls-8{fill:#231f20;}.cls-9{stroke-width:3px;}.cls-10{stroke-width:5px;}</style></defs><title>sticker_Artboard 33</title><g id="Top_layer"><ellipse class="cls-1" cx="108.12" cy="72.42" rx="9.42" ry="10.94"/><path class="cls-2" d="M37,201.41S60.28,184.32,45,162.7"/><path class="cls-3" d="M37,201.41S60.28,184.32,45,162.7"/><rect class="cls-4" x="24.87" y="197.62" width="28" height="14.04" rx="7.02" ry="7.02" transform="translate(77.74 409.28) rotate(-180)"/><path class="cls-5" d="M86.68,129.32s20.4,31,39.46-2"/><path class="cls-6" d="M86.68,129.32s20.4,31,39.46-2"/><path class="cls-2" d="M72.31,202.72s18.25-22.36-2-39.46"/><path class="cls-3" d="M72.31,202.72s18.25-22.36-2-39.46"/><rect class="cls-7" x="36.08" y="116.1" width="50.04" height="54.89" rx="12" ry="12" transform="translate(122.2 287.08) rotate(-180)"/><path class="cls-4" d="M20.55,76.1A42.34,42.34,0,1,0,62.89,33.76,42.34,42.34,0,0,0,20.55,76.1Z"/><circle class="cls-8" cx="68.12" cy="77.14" r="3.89"/><circle class="cls-8" cx="94.45" cy="77.14" r="3.89"/><path class="cls-9" d="M77.91,83.17a4.39,4.39,0,0,0,8.77,0"/><path class="cls-5" d="M38.08,124.29s-31,9.94,2,29"/><path class="cls-10" d="M38.08,124.29s-31,9.94,2,29"/><circle class="cls-7" cx="126.14" cy="127.32" r="9.14"/><circle class="cls-7" cx="38.87" cy="153.29" r="9.14"/><rect class="cls-4" x="65.96" y="197.62" width="28" height="14.04" rx="7.02" ry="7.02" transform="translate(159.91 409.28) rotate(180)"/><path class="cls-1" d="M30.93,26H78.59a33.46,33.46,0,0,1,33.46,33.46V89.36a28.82,28.82,0,0,1-28.82,28.82H56.95A37.09,37.09,0,0,1,19.86,81.08v-44A11.07,11.07,0,0,1,30.93,26Z"/><polygon class="cls-11" points="99.31 85.23 81.85 85.23 34.62 72.08 112.05 72.08 99.31 85.23"/><path class="cls-1" d="M78,82.38l4.3,37.73A4.7,4.7,0,0,0,87,124.28h7.17a4.7,4.7,0,0,0,4.68-4.17l4.3-37.73a4.72,4.72,0,0,0-4.68-5.24H82.68A4.71,4.71,0,0,0,78,82.38Z"/><path class="cls-8" d="M87.74,86.1,89.34,116c.14,2.46,1.57,4.35,3.3,4.35h0c1.73,0,3.17-1.89,3.3-4.35l1.6-29.94c.15-2.73-1.37-5.06-3.29-5.06H91C89.11,81,87.59,83.37,87.74,86.1Z"/><line class="cls-12" x1="30.49" y1="63.53" x2="112.05" y2="63.53"/><line class="cls-12" x1="32.48" y1="80.65" x2="79.38" y2="94.48"/><line class="cls-12" x1="101.84" y1="94.48" x2="112.05" y2="83.04"/><ellipse class="cls-1" cx="25.06" cy="72.42" rx="9.42" ry="10.94"/></g></svg>