<svg xmlns="http://www.w3.org/2000/svg" viewBox="0 0 187.33 224.67"><defs><style>.cls-1,.cls-11,.cls-4,.cls-7{fill:#fff;}.cls-1,.cls-2,.cls-4,.cls-5,.cls-7,.cls-9{stroke:#231f20;}.cls-1,.cls-10,.cls-2,.cls-3,.cls-5,.cls-6,.cls-7,.cls-9{stroke-linecap:round;}.cls-1{stroke-linejoin:round;}.cls-1,.cls-4,.cls-6,.cls-7{stroke-width:4px;}.cls-10,.cls-2,.cls-3,.cls-5,.cls-6,.cls-9{fill:none;}.cls-10,.cls-2,.cls-3,.cls-4,.cls-5,.cls-6,.cls-7,.cls-9{stroke-miterlimit:10;}.cls-2{stroke-width:16px;}.cls-10,.cls-3,.cls-6{stroke:#fff;}.cls-3{stroke-width:8px;}.cls-5{stroke-width:12px;}.cls-8{fill:#231f20;}.cls-9{stroke-width:3px;}.cls-10{stroke-width:5px;}</style></defs><title>sticker_Artboard 34</title><g id="Top_layer"><path class="cls-1" d="M111.17,111.71s-21.36-10.63-48.89,23.72S8.87,155.2,8.87,155.2,21.57,176.61,55.92,175s69.89,8,69.89,8,25.89-37.66,14.94-67.3"/><path class="cls-2" d="M102.7,196.74S126,179.65,110.62,158"/><path class="cls-3" d="M102.7,196.74S126,179.65,110.62,158"/><rect class="cls-4" x="90.54" y="192.95" width="28" height="14.04" rx="7.02" ry="7.02" transform="translate(209.08 399.95) rotate(-180)"/><path class="cls-5" d="M145.12,115.66s36.42,7.14,13.07,37.29"/><path class="cls-6" d="M145.12,115.66s36.42,7.14,13.07,37.29"/><path class="cls-2" d="M138,198.06s18.25-22.36-2-39.46"/><path class="cls-3" d="M138,198.06s18.25-22.36-2-39.46"/><rect class="cls-7" x="101.75" y="111.43" width="50.04" height="54.89" rx="12" ry="12" transform="translate(253.53 277.75) rotate(-180)"/><path class="cls-4" d="M86.22,71.43a42.34,42.34,0,1,0,42.34-42.34A42.34,42.34,0,0,0,86.22,71.43Z"/><circle class="cls-8" cx="133.78" cy="72.47" r="3.89"/><circle class="cls-8" cx="160.12" cy="72.47" r="3.89"/><path class="cls-9" d="M145.58,82.5a4.39,4.39,0,1,0,8.77,0"/><path class="cls-5" d="M103.75,119.62s-31,9.94,2,29"/><path class="cls-10" d="M103.75,119.62s-31,9.94,2,29"/><circle class="cls-7" cx="160.12" cy="150.65" r="9.14"/><circle class="cls-7" cx="104.54" cy="148.62" r="9.14"/><rect class="cls-4" x="131.62" y="192.95" width="28" height="14.04" rx="7.02" ry="7.02" transform="translate(291.25 399.95) rotate(180)"/><path class="cls-11" d="M131.39,80.14a4.59,4.59,0,0,1-4-2.36c-3.26-5.88-3.64-13.29-3.54-17.49,5.71,3.65,18.5,11.14,27.07,11.14,8,0,13.58-6.18,16.41-10.28,2.08,5.8,2.38,11.15.85,15.65a4.48,4.48,0,0,1-4.3,3,4.69,4.69,0,0,1-2.42-.67l-10-6a2,2,0,0,0-1-.28,2.07,2.07,0,0,0-.77.15l-16.46,6.79a4.57,4.57,0,0,1-1.78.36Z"/><path class="cls-8" d="M125.87,63.93C131,67,138.48,71,145.21,72.65l-12.8,5.28a2.59,2.59,0,0,1-1,.21,2.61,2.61,0,0,1-2.29-1.33,30.47,30.47,0,0,1-3.23-12.88m40.61,1.5a19.65,19.65,0,0,1-.22,10.73,2.49,2.49,0,0,1-2.41,1.63,2.71,2.71,0,0,1-1.39-.38L155,72.93c4.92-1.2,8.77-4.41,11.48-7.5m1.15-8.71s-6.15,12.71-16.74,12.71S122,56.72,122,56.72s-1.63,12.64,3.56,22a6.63,6.63,0,0,0,5.79,3.39,6.7,6.7,0,0,0,2.54-.51l16.47-6.79,10,6a6.71,6.71,0,0,0,3.45,1,6.47,6.47,0,0,0,6.2-4.35c1.53-4.51,2-11.37-2.42-20.72Z"/></g></svg>