<svg xmlns="http://www.w3.org/2000/svg" viewBox="0 0 121.87 288.64"><defs><style>.cls-1,.cls-2,.cls-4,.cls-5,.cls-7,.cls-8{fill:none;}.cls-1,.cls-10,.cls-3,.cls-4,.cls-6,.cls-8,.cls-9{stroke:#231f20;}.cls-1,.cls-10,.cls-2,.cls-4,.cls-5,.cls-6,.cls-7,.cls-8,.cls-9{stroke-linecap:round;}.cls-1,.cls-10,.cls-2,.cls-3,.cls-4,.cls-5,.cls-6,.cls-7,.cls-8,.cls-9{stroke-miterlimit:10;}.cls-1{stroke-width:16px;}.cls-2,.cls-5,.cls-7{stroke:#fff;}.cls-2{stroke-width:8px;}.cls-10,.cls-3,.cls-6,.cls-9{fill:#fff;}.cls-3,.cls-5,.cls-6{stroke-width:4px;}.cls-4{stroke-width:12px;}.cls-7{stroke-width:5px;}.cls-8,.cls-9{stroke-width:3px;}</style></defs><title>sticker_Artboard 16</title><g id="Top_layer"><path class="cls-1" d="M32.43,263.23s9.29-21.66,2.5-39.39"/><path class="cls-2" d="M32.43,263.23s9.29-21.66,2.5-39.39"/><rect class="cls-3" x="23.41" y="258.76" width="28" height="14.04" rx="7.02" ry="7.02" transform="translate(74.83 531.57) rotate(-180)"/><path class="cls-4" d="M63.69,193.72s36.75,5.19,24.57-30.94"/><path class="cls-5" d="M63.69,193.72s36.75,5.19,24.57-30.94"/><path class="cls-1" d="M63.68,263.87s9.13-22.36-1-39.46"/><path class="cls-2" d="M63.68,263.87s9.13-22.36-1-39.46"/><rect class="cls-6" x="26.06" y="177.24" width="50.04" height="54.89" rx="12" ry="12" transform="translate(102.17 409.37) rotate(-180)"/><path class="cls-3" d="M10.54,137.24A42.34,42.34,0,1,0,52.88,94.9,42.34,42.34,0,0,0,10.54,137.24Z"/><path class="cls-4" d="M32.2,184.63s28.1,16.45,20.25-20.86"/><path class="cls-7" d="M32.2,184.63s28.1,16.45,20.25-20.86"/><circle class="cls-6" cx="88.26" cy="162.78" r="9.14"/><circle class="cls-6" cx="53.26" cy="164.67" r="9.14"/><rect class="cls-3" x="55.94" y="258.76" width="28" height="14.04" rx="7.02" ry="7.02" transform="translate(139.88 531.57) rotate(-180)"/><path class="cls-8" d="M68,137.8a4.38,4.38,0,1,0,8.76,0"/><path class="cls-8" d="M62.6,127.1a4.38,4.38,0,0,0-8.76,0"/><path class="cls-8" d="M88.94,127.1a4.39,4.39,0,0,0-8.77,0"/><path class="cls-9" d="M71.15,63.46a4,4,0,0,1,.34,6.89l-2.36,1.58L63,76.07a.89.89,0,0,1-1.37-.53L59.9,68.32l-.65-2.77a4,4,0,0,1,4.92-4.83l.35.12a4.45,4.45,0,0,1,2.58,2.69,4.46,4.46,0,0,1,3.72-.22A3.31,3.31,0,0,1,71.15,63.46Z"/><path class="cls-9" d="M43,68.5c3.84-3,9.49-.42,10.14,4.39l.61,4.51,1.59,11.78a1.43,1.43,0,0,1-1.74,1.59L42,88.11l-4.44-1C32.8,86,30.77,80.15,34.08,76.6c.13-.15.27-.28.41-.42a7.15,7.15,0,0,1,5.7-1.81,7.09,7.09,0,0,1,2.31-5.5C42.65,68.74,42.8,68.61,43,68.5Z"/><path class="cls-9" d="M53.94,47.65a3.4,3.4,0,0,1,3.55,4.67l-.89,2.24-2.32,5.87a.76.76,0,0,1-1.22.29l-4.67-4.24L46.6,54.85a3.4,3.4,0,0,1,1.13-5.75L48,49a3.79,3.79,0,0,1,3.1.64,3.76,3.76,0,0,1,2.5-1.94A1.7,1.7,0,0,1,53.94,47.65Z"/><line class="cls-10" x1="37.78" y1="141.55" x2="42.5" y2="137.24"/><line class="cls-10" x1="41.76" y1="141.55" x2="46.48" y2="137.24"/><line class="cls-10" x1="45.74" y1="141.55" x2="50.46" y2="137.24"/><line class="cls-10" x1="86.35" y1="139.95" x2="91.06" y2="135.64"/><line class="cls-10" x1="90.33" y1="139.95" x2="95.04" y2="135.64"/><line class="cls-10" x1="94.31" y1="139.95" x2="99.02" y2="135.64"/></g></svg>