<?xml version="1.0" encoding="utf-8"?>
<!-- Generator: Adobe Illustrator 24.0.0, SVG Export Plug-In . SVG Version: 6.00 Build 0)  -->
<svg version="1.1" id="Layer_1" xmlns="http://www.w3.org/2000/svg" xmlns:xlink="http://www.w3.org/1999/xlink" x="0px" y="0px"
	 viewBox="0 0 42.4 47.7" style="enable-background:new 0 0 42.4 47.7;" xml:space="preserve">
<style type="text/css">
	.st0{fill:#FFFFFF;}
	.st1{fill:#CCCCCC;}
	.st2{fill:#121212;}
	.st3{fill:#F1F1F2;}
	.st4{fill:#231F20;stroke:#FFFFFF;stroke-width:6;stroke-linecap:round;stroke-linejoin:round;stroke-miterlimit:10;}
	.st5{fill:#231F20;}
	.st6{fill:none;stroke:#231F20;stroke-width:10;stroke-linecap:round;stroke-miterlimit:10;}
	.st7{fill:#FFFFFF;stroke:#121212;stroke-width:2;stroke-miterlimit:10;}
	.st8{fill:#FFFFFF;stroke:#000000;stroke-width:2;stroke-miterlimit:10;}
	.st9{fill-rule:evenodd;clip-rule:evenodd;fill:#121212;}
</style>
<path class="st2" d="M37.1,2.65V5.3h-5.3V2.65C31.8,1.19,30.61,0,29.15,0h-15.9c-1.46,0-2.65,1.19-2.65,2.65V5.3H5.3V2.65
	C5.3,1.19,4.11,0,2.65,0S0,1.19,0,2.65v42.4c0,1.46,1.19,2.65,2.65,2.65s2.65-1.19,2.65-2.65V42.4h5.3v2.65
	c0,1.46,1.19,2.65,2.65,2.65h15.9c1.46,0,2.65-1.19,2.65-2.65V42.4h5.3v2.65c0,1.46,1.19,2.65,2.65,2.65c1.46,0,2.65-1.19,2.65-2.65
	V2.65C42.4,1.19,41.21,0,39.75,0C38.29,0,37.1,1.19,37.1,2.65z M10.6,37.1H5.3v-5.3h5.3V37.1z M10.6,26.5H5.3v-5.3h5.3V26.5z
	 M10.6,15.9H5.3v-5.3h5.3V15.9z M37.1,37.1h-5.3v-5.3h5.3V37.1z M37.1,26.5h-5.3v-5.3h5.3V26.5z M37.1,15.9h-5.3v-5.3h5.3V15.9z"/>
</svg>
