<?xml version="1.0" encoding="utf-8"?>
<!-- Generator: Adobe Illustrator 24.0.0, SVG Export Plug-In . SVG Version: 6.00 Build 0)  -->
<svg version="1.1" id="Layer_1" xmlns="http://www.w3.org/2000/svg" xmlns:xlink="http://www.w3.org/1999/xlink" x="0px" y="0px"
	 viewBox="0 0 51.69 49.8" style="enable-background:new 0 0 51.69 49.8;" xml:space="preserve">
<style type="text/css">
	.st0{fill:#FFFFFF;}
	.st1{fill:#CCCCCC;}
	.st2{fill:#121212;}
	.st3{fill:#F1F1F2;}
	.st4{fill:#231F20;stroke:#FFFFFF;stroke-width:6;stroke-linecap:round;stroke-linejoin:round;stroke-miterlimit:10;}
	.st5{fill:#231F20;}
	.st6{fill:none;stroke:#231F20;stroke-width:10;stroke-linecap:round;stroke-miterlimit:10;}
	.st7{fill:#FFFFFF;stroke:#121212;stroke-width:2;stroke-miterlimit:10;}
	.st8{fill:#FFFFFF;stroke:#000000;stroke-width:2;stroke-miterlimit:10;}
	.st9{fill-rule:evenodd;clip-rule:evenodd;fill:#121212;}
</style>
<path class="st7" d="M33.53,14.5h-18.3l6.38-6.38c1.63-1.63,1.63-4.27,0-5.89c-1.63-1.63-4.27-1.63-5.89,0l-13.5,13.5
	C2.13,15.81,2.05,15.9,1.96,16c-0.03,0.03-0.05,0.06-0.08,0.09c-0.05,0.07-0.11,0.14-0.15,0.21c-0.02,0.04-0.05,0.07-0.07,0.11
	c-0.06,0.1-0.12,0.19-0.17,0.3c-0.02,0.03-0.03,0.07-0.05,0.1c-0.04,0.08-0.07,0.15-0.11,0.23c-0.02,0.05-0.04,0.09-0.06,0.14
	c-0.03,0.07-0.05,0.14-0.07,0.21c-0.01,0.04-0.03,0.09-0.04,0.13c-0.03,0.11-0.06,0.22-0.08,0.34c0,0.02-0.01,0.05-0.01,0.07
	c-0.02,0.1-0.03,0.19-0.04,0.29c0,0.04-0.01,0.08-0.01,0.11C1.01,18.42,1,18.51,1,18.6c0,0.03,0,0.07,0,0.1
	c0,0.12,0.01,0.24,0.02,0.36c0,0,0,0,0,0.01c0.01,0.12,0.03,0.23,0.05,0.35c0.01,0.04,0.02,0.08,0.03,0.12
	c0.02,0.08,0.04,0.15,0.06,0.23c0.01,0.05,0.03,0.09,0.04,0.14c0.02,0.07,0.05,0.15,0.08,0.22c0.02,0.04,0.03,0.09,0.05,0.13
	c0,0,0,0,0,0c0.04,0.1,0.09,0.21,0.14,0.3c0.02,0.04,0.05,0.09,0.07,0.13c0.04,0.07,0.08,0.13,0.12,0.2
	c0.03,0.04,0.05,0.08,0.08,0.12c0.06,0.08,0.11,0.16,0.17,0.24c0.02,0.02,0.03,0.04,0.04,0.06c0.08,0.1,0.17,0.19,0.25,0.28
	c0.01,0.01,0.01,0.02,0.02,0.03l13.43,13.43c0.81,0.81,1.88,1.22,2.95,1.22c1.07,0,2.13-0.41,2.95-1.22c1.63-1.63,1.63-4.27,0-5.89
	l-6.32-6.32h18.3c4.86,0,8.82,3.95,8.82,8.82s-3.95,8.82-8.82,8.82h-9.08c-2.3,0-4.17,1.87-4.17,4.17c0,2.3,1.87,4.17,4.17,4.17
	h9.08c9.46,0,17.15-7.69,17.15-17.15S42.99,14.5,33.53,14.5z"/>
</svg>
