<?xml version="1.0" encoding="utf-8"?>
<!-- Generator: Adobe Illustrator 24.0.0, SVG Export Plug-In . SVG Version: 6.00 Build 0)  -->
<svg version="1.1" id="Layer_1" xmlns="http://www.w3.org/2000/svg" xmlns:xlink="http://www.w3.org/1999/xlink" x="0px" y="0px"
	 viewBox="0 0 24 24" style="enable-background:new 0 0 24 24;" xml:space="preserve">
<style type="text/css">
	.st0{fill:#FFFFFF;}
	.st1{fill:#CCCCCC;}
	.st2{fill:#121212;}
	.st3{fill:#F1F1F2;}
	.st4{fill:#231F20;stroke:#FFFFFF;stroke-width:6;stroke-linecap:round;stroke-linejoin:round;stroke-miterlimit:10;}
	.st5{fill:#231F20;}
	.st6{fill:none;stroke:#231F20;stroke-width:10;stroke-linecap:round;stroke-miterlimit:10;}
	.st7{fill:#FFFFFF;stroke:#121212;stroke-width:2;stroke-miterlimit:10;}
	.st8{fill:#FFFFFF;stroke:#000000;stroke-width:2;stroke-miterlimit:10;}
	.st9{fill-rule:evenodd;clip-rule:evenodd;fill:#121212;}
</style>
<g>
	<g>
		<circle class="st0" cx="12" cy="12" r="11.5"/>
		<path class="st2" d="M12,1c6.08,0,11,4.92,11,11c0,6.08-4.92,11-11,11S1,18.08,1,12C1,5.92,5.92,1,12,1 M12,0C5.38,0,0,5.38,0,12
			s5.38,12,12,12s12-5.38,12-12S18.62,0,12,0L12,0z"/>
	</g>
	<g>
		<path class="st2" d="M12,19.5c-0.83,0-1.5-0.67-1.5-1.5V6c0-0.83,0.67-1.5,1.5-1.5s1.5,0.67,1.5,1.5v12
			C13.5,18.83,12.83,19.5,12,19.5z"/>
	</g>
	<g>
		<path class="st2" d="M18,13.5H6c-0.83,0-1.5-0.67-1.5-1.5s0.67-1.5,1.5-1.5h12c0.83,0,1.5,0.67,1.5,1.5S18.83,13.5,18,13.5z"/>
	</g>
</g>
</svg>
