<?xml version="1.0" encoding="utf-8"?>
<!-- Generator: Adobe Illustrator 24.0.0, SVG Export Plug-In . SVG Version: 6.00 Build 0)  -->
<svg version="1.1" id="Layer_1" xmlns="http://www.w3.org/2000/svg" xmlns:xlink="http://www.w3.org/1999/xlink" x="0px" y="0px"
	 viewBox="0 0 51.69 49.79" style="enable-background:new 0 0 51.69 49.79;" xml:space="preserve">
<style type="text/css">
	.st0{fill:#FFFFFF;}
	.st1{fill:#CCCCCC;}
	.st2{fill:#121212;}
	.st3{fill:#F1F1F2;}
	.st4{fill:#231F20;stroke:#FFFFFF;stroke-width:6;stroke-linecap:round;stroke-linejoin:round;stroke-miterlimit:10;}
	.st5{fill:#231F20;}
	.st6{fill:none;stroke:#231F20;stroke-width:10;stroke-linecap:round;stroke-miterlimit:10;}
	.st7{fill:#FFFFFF;stroke:#121212;stroke-width:2;stroke-miterlimit:10;}
	.st8{fill:#FFFFFF;stroke:#000000;stroke-width:2;stroke-miterlimit:10;}
	.st9{fill-rule:evenodd;clip-rule:evenodd;fill:#121212;}
</style>
<path class="st7" d="M2.74,1.81c-1.08,1.08-1.08,2.82,0,3.89l10.1,10.1l-0.8,0.83H3.76C2.24,16.63,1,17.87,1,19.39v11.04
	c0,1.52,1.24,2.76,2.76,2.76h8.28l9.08,9.08c1.74,1.74,4.72,0.5,4.72-1.96V28.8l11.54,11.54c-1.35,1.02-2.82,1.88-4.42,2.51
	c-0.99,0.41-1.6,1.46-1.6,2.54c0,1.99,2.02,3.26,3.84,2.51c2.21-0.91,4.28-2.13,6.13-3.62l3.7,3.7c1.08,1.08,2.82,1.08,3.89,0
	c1.08-1.08,1.08-2.82,0-3.89L6.66,1.81C5.58,0.73,3.84,0.73,2.74,1.81z M45.16,24.91c0,2.26-0.41,4.44-1.13,6.46l4.22,4.22
	c1.55-3.23,2.43-6.85,2.43-10.68c0-10.57-6.62-19.63-15.95-23.19c-1.63-0.63-3.37,0.63-3.37,2.37v0.52c0,1.05,0.69,1.96,1.68,2.35
	C40.14,9.84,45.16,16.8,45.16,24.91z M21.12,7.55l-0.47,0.47l5.19,5.19V9.48C25.84,7.02,22.86,5.81,21.12,7.55z M38.26,24.91
	c0-4.89-2.82-9.08-6.9-11.12v4.94l6.85,6.85C38.24,25.35,38.26,25.13,38.26,24.91z"/>
</svg>
