<?xml version="1.0" encoding="utf-8"?>
<!-- Generator: Adobe Illustrator 24.0.0, SVG Export Plug-In . SVG Version: 6.00 Build 0)  -->
<svg version="1.1" id="Layer_1" xmlns="http://www.w3.org/2000/svg" xmlns:xlink="http://www.w3.org/1999/xlink" x="0px" y="0px"
	 viewBox="0 0 47.7 44.84" style="enable-background:new 0 0 47.7 44.84;" xml:space="preserve">
<style type="text/css">
	.st0{fill:#FFFFFF;}
	.st1{fill:#CCCCCC;}
	.st2{fill:#121212;}
	.st3{fill:#F1F1F2;}
	.st4{fill:#231F20;stroke:#FFFFFF;stroke-width:6;stroke-linecap:round;stroke-linejoin:round;stroke-miterlimit:10;}
	.st5{fill:#231F20;}
	.st6{fill:none;stroke:#231F20;stroke-width:10;stroke-linecap:round;stroke-miterlimit:10;}
	.st7{fill:#FFFFFF;stroke:#121212;stroke-width:2;stroke-miterlimit:10;}
	.st8{fill:#FFFFFF;stroke:#000000;stroke-width:2;stroke-miterlimit:10;}
	.st9{fill-rule:evenodd;clip-rule:evenodd;fill:#121212;}
</style>
<path class="st2" d="M0,17.12v10.6c0,1.46,1.19,2.65,2.65,2.65h7.95l8.72,8.72c1.67,1.67,4.53,0.48,4.53-1.88V7.61
	c0-2.36-2.86-3.55-4.53-1.88l-8.72,8.75H2.65C1.19,14.47,0,15.66,0,17.12z M35.78,22.42c0-4.69-2.7-8.72-6.63-10.68v21.33
	C33.07,31.14,35.78,27.11,35.78,22.42z M29.15,2.41v0.53c0,1.01,0.66,1.88,1.59,2.25c6.84,2.73,11.66,9.43,11.66,17.23
	s-4.82,14.5-11.66,17.23c-0.95,0.37-1.59,1.25-1.59,2.25v0.53c0,1.67,1.67,2.84,3.21,2.25C41.34,41.26,47.7,32.6,47.7,22.42
	S41.34,3.58,32.36,0.16C30.82-0.45,29.15,0.74,29.15,2.41z"/>
</svg>
